<svg width="18" height="18" viewBox="0 0 18 18" fill="none" xmlns="http://www.w3.org/2000/svg">
<g clip-path="url(#clip0_2551_67)">
<path d="M15.4 13.8307L14.4838 3.51411C14.4642 3.28507 14.2711 3.11166 14.0454 3.11166H12.1607C12.1345 1.39059 10.7276 0 8.99996 0C7.27235 0 5.86539 1.39059 5.83922 3.11166H3.95455C3.72551 3.11166 3.53574 3.28507 3.51611 3.51411L2.59995 13.8307C2.59995 13.8438 2.59668 13.8569 2.59668 13.8699C2.59668 15.0446 3.67316 16 4.99832 16H13.0016C14.3267 16 15.4032 15.0446 15.4032 13.8699C15.4032 13.8569 15.4032 13.8438 15.4 13.8307ZM8.99996 0.883436C10.24 0.883436 11.2511 1.87812 11.2773 3.11166H6.72265C6.74883 1.87812 7.75987 0.883436 8.99996 0.883436ZM13.0016 15.1166H4.99832C4.16723 15.1166 3.4932 14.5669 3.48012 13.8896L4.35701 3.99836H5.83595V5.33988C5.83595 5.58528 6.03226 5.78159 6.27766 5.78159C6.52306 5.78159 6.71938 5.58528 6.71938 5.33988V3.99836H11.2773V5.33988C11.2773 5.58528 11.4736 5.78159 11.719 5.78159C11.9644 5.78159 12.1607 5.58528 12.1607 5.33988V3.99836H13.6396L14.5198 13.8896C14.5067 14.5669 13.8294 15.1166 13.0016 15.1166Z" fill="white"/>
</g>
<defs>
<clipPath id="clip0_2551_67">
<rect width="18" height="18" fill="white"/>
</clipPath>
</defs>
</svg>
