<svg width="24" height="24" viewBox="0 0 24 24" fill="none" xmlns="http://www.w3.org/2000/svg">
<path d="M12 0C18.6167 0 24 5.38331 24 12C24 18.6167 18.6167 24 12 24C5.38331 24 0 18.6167 0 12C0 5.38331 5.38331 0 12 0ZM12 22.5C17.7898 22.5 22.5 17.7898 22.5 12C22.5 6.21019 17.7898 1.5 12 1.5C6.21019 1.5 1.5 6.21019 1.5 12C1.5 17.7898 6.21019 22.5 12 22.5ZM6.96975 11.4698C6.67669 11.7628 6.67669 12.2374 6.96975 12.5303L10.7197 16.2803C10.8662 16.4267 11.0582 16.5 11.25 16.5C11.4418 16.5 11.6338 16.4267 11.7803 16.2803C12.0733 15.9872 12.0733 15.5126 11.7803 15.2197L9.3105 12.75H16.5C16.9142 12.75 17.25 12.4146 17.25 12C17.25 11.5854 16.9142 11.25 16.5 11.25H9.3105L11.7803 8.78025C12.0733 8.48719 12.0733 8.01262 11.7803 7.71975C11.4872 7.42688 11.0126 7.42669 10.7197 7.71975L6.96975 11.4698Z" fill="#EE077D"/>
</svg>
