<svg width="25" height="20" viewBox="0 0 25 20" fill="none" xmlns="http://www.w3.org/2000/svg">
<path d="M18.7666 20C22.0241 20 24.6648 17.1031 24.6648 13.5297C24.6648 10.8903 23.4123 8.33644 21.5429 7.84366C20.8218 7.65358 20.2475 6.63845 20.3709 5.47959C20.5361 3.9285 21.8147 2.36141 24.3464 1.12648C24.9101 0.851513 24.6741 -0.0787204 24.062 0.0053517C17.4639 0.911539 12.8903 5.63025 12.8684 12.3064C12.8683 16.8977 15.3411 20 18.7666 20Z" fill="#EE077D" opacity="0.08"/>
<path d="M5.89815 20C9.15565 20 11.7964 17.1031 11.7964 13.5297C11.7964 10.8903 10.5439 8.33644 8.67447 7.84366C7.95338 7.65358 7.37911 6.63845 7.50251 5.47959C7.66766 3.9285 8.94632 2.36141 11.478 1.12648C12.0417 0.851514 11.8057 -0.0787188 11.1936 0.00535329C4.59552 0.91154 0.0219414 5.63025 1.89448e-09 12.3064C-7.90237e-05 16.8977 2.47266 20 5.89815 20Z" fill="#EE077D" opacity="0.08"/>
</svg>