<svg width="25" height="20" viewBox="0 0 25 20" fill="none" xmlns="http://www.w3.org/2000/svg">
<path d="M5.8997 0C2.6422 0 0.00146955 2.89687 0.00146955 6.47033C0.00146955 9.10975 1.25398 11.6636 3.12338 12.1563C3.84447 12.3464 4.41874 13.3616 4.29535 14.5204C4.13019 16.0715 2.85154 17.6386 0.319813 18.8735C-0.24389 19.1485 -0.00785554 20.0787 0.604284 19.9946C7.20233 19.0885 11.7759 14.3697 11.7979 7.69362C11.7979 3.10229 9.32519 0 5.8997 0Z" fill="#EE077D" opacity="0.08"/>
<path d="M18.7679 0C15.5104 0 12.8696 2.89687 12.8696 6.47033C12.8696 9.10975 14.1221 11.6636 15.9915 12.1563C16.7126 12.3464 17.2869 13.3616 17.1635 14.5204C16.9984 16.0715 15.7197 17.6386 13.188 18.8735C12.6243 19.1485 12.8603 20.0787 13.4724 19.9946C20.0705 19.0885 24.6441 14.3697 24.666 7.69362C24.6661 3.10229 22.1934 0 18.7679 0Z" fill="#EE077D" opacity="0.08"/>
</svg>