<svg width="70" height="44" viewBox="0 0 70 44" fill="none" xmlns="http://www.w3.org/2000/svg">
<path d="M28.0939 19.9896C27.0592 19.975 26.2897 19.6965 25.8069 19.1605C25.2046 18.4932 25.2736 17.6508 25.2736 17.6428V8.94155C25.2736 8.91237 25.3067 6.06411 28.1337 5.90226C28.216 5.89696 28.2969 5.89563 28.3792 5.89563C31.2871 5.89563 33.5835 8.78766 33.9656 12.928C34.203 15.4977 33.2373 17.1493 32.3856 18.0833C31.2964 19.2772 29.7177 19.991 28.1629 19.991H28.0926L28.0939 19.9896ZM29.2574 7.90679C27.8605 7.90679 26.7235 9.84498 26.7235 12.2263C26.7235 14.6075 27.8605 16.5457 29.2574 16.5457C30.6543 16.5457 31.7912 14.6075 31.7912 12.2263C31.7912 9.84498 30.6543 7.90679 29.2574 7.90679Z" fill="white"/>
<path d="M28.3792 5.91158C31.1253 5.91158 33.549 8.58074 33.9483 12.9294C34.3569 17.3723 31.1532 19.9738 28.163 19.9738C28.1404 19.9738 28.1165 19.9738 28.0926 19.9738C25.0825 19.9326 25.2882 17.6455 25.2882 17.6455V8.94291C25.2882 8.94291 25.2882 6.08272 28.1338 5.91954C28.216 5.91424 28.2969 5.91291 28.3779 5.91291M29.2574 16.5643C30.6663 16.5643 31.8085 14.6222 31.8085 12.2276C31.8085 9.83307 30.6663 7.8909 29.2574 7.8909C27.8485 7.8909 26.7063 9.83307 26.7063 12.2276C26.7063 14.6222 27.8485 16.5643 29.2574 16.5643ZM28.3792 5.87842C28.2969 5.87842 28.2147 5.88107 28.1324 5.88505C25.2882 6.04823 25.2563 8.9124 25.2563 8.94158V17.6442C25.2563 17.6442 25.1873 18.4986 25.7936 19.1711C26.2805 19.7111 27.0539 19.991 28.0926 20.0056C28.1165 20.0056 28.1391 20.0056 28.163 20.0056C29.7217 20.0056 31.3057 19.2905 32.3975 18.0926C33.2505 17.1573 34.2176 15.5017 33.9815 12.9254C33.5994 8.77576 31.2951 5.87842 28.3792 5.87842ZM29.2574 16.5312C27.8698 16.5312 26.7395 14.6009 26.7395 12.2276C26.7395 9.8543 27.8684 7.92407 29.2574 7.92407C30.6464 7.92407 31.7753 9.8543 31.7753 12.2276C31.7753 14.6009 30.6464 16.5312 29.2574 16.5312Z" fill="white"/>
<path d="M35.5032 10.8973C33.6287 10.8973 32.1097 12.9204 32.1097 15.4171C32.1097 17.9138 33.6287 19.9369 35.5032 19.9369C37.3777 19.9369 38.8967 17.9138 38.8967 15.4171C38.8967 12.9204 37.3777 10.8973 35.5032 10.8973ZM35.925 18.0424C34.8531 18.0424 33.9842 16.6654 33.9842 14.966C33.9842 13.2666 34.8531 11.8896 35.925 11.8896C36.997 11.8896 37.8659 13.2666 37.8659 14.966C37.8659 16.6654 36.997 18.0424 35.925 18.0424Z" fill="white"/>
<path d="M48.3354 18.1814C48.2704 17.4969 48.0303 16.8283 47.6402 16.2539C47.1626 15.5494 46.4556 14.9763 46.1106 14.191C45.6994 13.2584 46.4489 13.0315 47.0008 12.416C47.4585 11.9065 47.7888 11.2883 47.944 10.6303C48.1841 9.61015 47.9997 8.50242 47.4426 7.60563C47.3179 7.40398 47.1746 7.21295 47.0074 7.04314C46.1664 6.18747 44.7548 5.91021 43.5821 5.91021C42.7569 5.91021 40.2801 5.90225 40.2801 8.3817C40.2801 11.4488 40.2815 14.5147 40.2828 17.5818C40.2828 18.1589 40.2244 18.797 40.4871 19.3276C40.7206 19.7986 41.3905 20.1568 41.8747 19.7707C42.0193 19.6553 42.1109 19.4882 42.1772 19.317C42.3749 18.8076 42.3722 18.2478 42.3669 17.7039C42.3629 17.2926 42.3603 16.8814 42.3563 16.4688C42.351 15.8572 42.4133 14.7163 43.2889 14.7163C44.0252 14.7163 44.5824 15.4725 44.8663 16.0283C45.2138 16.7102 45.5296 17.4067 45.8108 18.1178C45.9647 18.5065 46.112 18.9058 46.3707 19.2388C46.6293 19.5717 47.0247 19.8344 47.4545 19.8304C48.3513 19.8211 48.3964 18.8209 48.3354 18.1814ZM44.0345 12.2488C42.9413 12.2488 42.0552 11.145 42.0552 9.78526C42.0552 8.42548 42.9413 7.32173 44.0345 7.32173C45.1276 7.32173 46.0138 8.42548 46.0138 9.78526C46.0138 11.145 45.1276 12.2488 44.0345 12.2488Z" fill="white"/>
<path d="M50.8667 10.8973C48.9922 10.8973 47.4732 12.9204 47.4732 15.4171C47.4732 17.9138 48.9922 19.9369 50.8667 19.9369C51.6096 19.9369 52.2994 19.6052 52.8327 19.1011C53.1259 18.8238 53.3992 18.4869 53.5836 18.126C53.7481 17.8023 54.3185 16.7609 53.7454 16.5314C53.5756 16.4638 53.3753 16.5235 53.2307 16.6362C53.0861 16.749 52.9826 16.9042 52.8792 17.0554C52.6523 17.3844 52.4029 17.7042 52.0779 17.9363C51.7529 18.1685 51.3429 18.3038 50.9503 18.2282C50.47 18.134 49.8969 17.6246 49.881 17.1045C49.8624 16.5182 50.5483 16.2555 51.0498 16.1719C51.5167 16.095 51.9956 16.1295 52.4679 16.095C52.7173 16.0764 52.9667 16.0393 53.2108 15.9835C54.9991 15.5696 54.0943 13.4338 53.3886 12.3937C52.8168 11.55 51.916 10.8973 50.8654 10.8973H50.8667ZM50.994 15.0483C50.0031 15.0483 49.2005 14.3412 49.2005 13.4696C49.2005 12.598 50.0031 11.8909 50.994 11.8909C51.985 11.8909 52.7876 12.598 52.7876 13.4696C52.7876 14.3412 51.985 15.0483 50.994 15.0483Z" fill="white"/>
<path d="M65.9621 42.2211C64.6394 42.2211 63.3142 41.8032 62.2502 41.0112C61.9079 40.7565 61.8297 40.263 62.0777 39.9101C62.3258 39.5573 62.8047 39.4777 63.147 39.7324C64.1393 40.47 65.3983 41.0059 66.6559 40.8162C67.3404 40.7127 67.9772 40.2245 67.9825 39.4777C67.9852 39.2163 67.899 38.9444 67.7092 38.7653C67.2383 38.3235 66.3906 38.5305 65.8347 38.6499C64.7363 38.886 63.4004 39.5122 62.5447 38.4747C61.9066 37.7026 61.9955 36.4729 62.7464 35.6742C63.2492 35.1396 63.9854 34.8119 64.9366 34.7018C66.3428 34.5373 67.7902 34.8425 69.012 35.5615C69.3476 35.7591 69.5572 36.3137 69.2946 36.648C69.1699 36.8072 68.9536 36.8868 68.7546 36.8483C68.5609 36.8098 68.4044 36.6745 68.2492 36.5538C67.4811 35.9595 66.4941 35.6543 65.5243 35.7101C65.0746 35.7353 64.6063 35.8494 64.2852 36.1651C63.9509 36.4928 63.7864 37.2556 64.2932 37.5063C64.6885 37.7013 65.0122 37.5633 65.4155 37.4997C66.1266 37.3869 66.8509 37.3617 67.5673 37.428C68.6419 37.5262 69.3715 37.9202 69.7363 38.5994C70.1144 39.3039 69.9963 40.2325 69.4418 40.9117C69.0651 41.3721 68.5264 41.7104 67.7928 41.9425C67.2012 42.1296 66.5829 42.2211 65.9634 42.2211H65.9621Z" fill="white"/>
<path d="M59.5403 34.7785C57.427 34.7785 55.7143 36.4381 55.7143 38.4864C55.7143 40.5347 57.427 42.1943 59.5403 42.1943C60.3774 42.1943 61.1561 41.9224 61.757 41.5084C62.0874 41.2816 62.3965 41.0043 62.6034 40.7085C62.7892 40.4432 63.4312 39.5888 62.7865 39.4005C62.5942 39.3447 62.3699 39.3938 62.2068 39.4867C62.0436 39.5795 61.9269 39.7069 61.8101 39.8303C61.5554 40.0996 61.2728 40.3623 60.9067 40.5533C60.5405 40.743 60.0776 40.8558 59.6358 40.7921C59.0932 40.7151 58.4485 40.2972 58.4299 39.8701C58.4087 39.3885 59.1821 39.1736 59.7472 39.1059C60.2739 39.0423 60.8138 39.0714 61.3458 39.0436C61.627 39.029 61.9083 38.9985 62.1829 38.9521C64.198 38.6124 63.1792 36.86 62.3845 36.007C61.7398 35.3158 60.7249 34.7798 59.5403 34.7798V34.7785ZM59.6849 38.1839C58.5679 38.1839 57.6631 37.6042 57.6631 36.8892C57.6631 36.1741 58.5679 35.5944 59.6849 35.5944C60.8019 35.5944 61.7066 36.1741 61.7066 36.8892C61.7066 37.6042 60.8019 38.1839 59.6849 38.1839Z" fill="white"/>
<path d="M65.8282 19.8874C65.3453 19.8874 64.9168 19.5505 64.8253 19.0676C64.3596 16.6027 64.4697 14.0291 63.8502 11.5881C63.6339 10.7351 62.9786 10.7988 62.7836 11.6213C62.5262 12.7038 62.2503 13.7837 61.9518 14.8556C61.7634 15.5348 61.8417 16.49 60.8772 16.4754C59.9207 16.4608 59.93 15.6263 59.796 14.9206C59.613 13.9535 59.414 12.9903 59.1977 12.0299C59.1234 11.7022 59.0465 11.3705 58.9006 11.0667C58.8621 10.9871 58.8104 10.9022 58.7228 10.8823C58.5556 10.8439 58.4575 11.0601 58.4296 11.2259C57.9932 13.838 57.8592 16.4488 57.3988 19.0556C57.302 19.6009 56.774 19.9657 56.2181 19.8715C55.6623 19.7773 55.2908 19.2586 55.3864 18.7134L57.5023 6.73931C57.5846 6.27764 57.9826 5.93272 58.4601 5.91017C59.15 5.87833 59.5161 6.44214 59.6395 7.03912C59.8226 7.92928 59.9433 8.86455 60.1211 9.76532C60.2683 10.5109 60.4182 11.2618 60.7101 11.9649C60.7552 12.0723 60.8189 12.1917 60.9356 12.2143C61.0921 12.2448 61.2115 12.0803 61.2765 11.937C61.7926 10.8134 61.8934 9.57164 62.1044 8.37237C62.2503 7.53793 62.4135 5.84251 63.6247 5.91017C64.0943 5.9367 64.4843 6.27366 64.5705 6.72737L66.8324 18.7014C66.9346 19.2453 66.5684 19.768 66.0139 19.8689C65.9516 19.8808 65.8879 19.8861 65.8269 19.8861L65.8282 19.8874Z" fill="white"/>
<path d="M35.4874 30.8562C35.0045 30.8562 34.576 30.6201 34.4845 30.2831C34.0188 28.5572 34.1289 26.7543 33.5094 25.0456C33.2932 24.4473 32.6378 24.4937 32.4428 25.0681C32.1854 25.827 31.9095 26.5818 31.611 27.3327C31.4226 27.8089 31.5009 28.4762 30.5364 28.4669C29.5799 28.4563 29.5892 27.8726 29.4552 27.3778C29.2722 26.7012 29.0732 26.026 28.8569 25.3534C28.7826 25.1239 28.7057 24.8917 28.5598 24.6794C28.5213 24.6237 28.4696 24.564 28.382 24.5508C28.2148 24.5242 28.1167 24.6755 28.0888 24.7922C27.6524 26.6203 27.5184 28.4497 27.058 30.2751C26.9612 30.6572 26.4332 30.9119 25.8773 30.8456C25.3215 30.7792 24.95 30.4171 25.0456 30.035L27.1615 21.6508C27.2438 21.3271 27.6418 21.0856 28.1193 21.0697C28.8092 21.0472 29.1753 21.4425 29.2987 21.8604C29.4818 22.4839 29.6025 23.1379 29.7803 23.7694C29.9275 24.2907 30.0774 24.8174 30.3693 25.3096C30.4144 25.3852 30.4781 25.4688 30.5948 25.4847C30.7514 25.5059 30.8707 25.3905 30.9357 25.291C31.4518 24.5043 31.5526 23.6354 31.7636 22.7943C31.9095 22.2106 32.0727 21.0233 33.2839 21.071C33.7535 21.0896 34.1435 21.3258 34.2297 21.6428L36.4916 30.0271C36.5938 30.4078 36.2276 30.7739 35.6731 30.8443C35.6108 30.8522 35.5471 30.8562 35.4861 30.8562H35.4874Z" fill="white"/>
<path d="M67.5924 13.7004H67.6866C68.3287 13.7004 68.85 14.2218 68.85 14.8639V18.7403C68.85 19.3824 68.3287 19.9037 67.6866 19.9037H67.5924C66.9503 19.9037 66.4289 19.3824 66.4289 18.7403V14.8639C66.4289 14.2218 66.9503 13.7004 67.5924 13.7004Z" fill="white"/>
<path d="M67.687 13.7174C68.3212 13.7174 68.8346 14.2308 68.8346 14.8649V18.7413C68.8346 19.3754 68.3212 19.8888 67.687 19.8888H67.5929C66.9587 19.8888 66.4453 19.3754 66.4453 18.7413V14.8649C66.4453 14.2308 66.9587 13.7174 67.5929 13.7174H67.687ZM67.687 13.6842H67.5929C66.9415 13.6842 66.4122 14.2135 66.4122 14.8649V18.7413C66.4122 19.3927 66.9415 19.922 67.5929 19.922H67.687C68.3384 19.922 68.8677 19.3927 68.8677 18.7413V14.8649C68.8677 14.2135 68.3384 13.6842 67.687 13.6842Z" fill="white"/>
<path d="M67.6408 13.5119C66.7812 13.5119 66.0807 12.8127 66.0807 11.9518C66.0807 11.0908 66.7798 10.3917 67.6408 10.3917C68.5018 10.3917 69.2009 11.0908 69.2009 11.9518C69.2009 12.8127 68.5018 13.5119 67.6408 13.5119Z" fill="white"/>
<path d="M67.6405 10.4086C68.4922 10.4086 69.1834 11.0998 69.1834 11.9515C69.1834 12.8031 68.4922 13.4943 67.6405 13.4943C66.7888 13.4943 66.0977 12.8031 66.0977 11.9515C66.0977 11.0998 66.7888 10.4086 67.6405 10.4086ZM67.6405 10.3754C66.7716 10.3754 66.0645 11.0825 66.0645 11.9515C66.0645 12.8204 66.7716 13.5275 67.6405 13.5275C68.5095 13.5275 69.2165 12.8204 69.2165 11.9515C69.2165 11.0825 68.5095 10.3754 67.6405 10.3754Z" fill="white"/>
<path d="M67.6405 13.6935C66.68 13.6935 65.8986 12.9121 65.8986 11.9516C65.8986 10.9912 66.68 10.2098 67.6405 10.2098C68.6009 10.2098 69.3823 10.9912 69.3823 11.9516C69.3823 12.9121 68.6009 13.6935 67.6405 13.6935ZM67.6405 10.6078C66.8989 10.6078 66.2966 11.21 66.2966 11.9516C66.2966 12.6932 66.8989 13.2955 67.6405 13.2955C68.382 13.2955 68.9843 12.6932 68.9843 11.9516C68.9843 11.21 68.382 10.6078 67.6405 10.6078Z" fill="white"/>
<path d="M58.7083 24.6687H58.6141C57.9804 24.6687 57.4666 25.1825 57.4666 25.8163V29.6927C57.4666 30.3264 57.9804 30.8402 58.6141 30.8402H58.7083C59.3421 30.8402 59.8559 30.3264 59.8559 29.6927V25.8163C59.8559 25.1825 59.3421 24.6687 58.7083 24.6687Z" fill="white"/>
<path d="M58.6617 24.4459C59.5138 24.4459 60.2046 23.7551 60.2046 22.903C60.2046 22.0509 59.5138 21.3602 58.6617 21.3602C57.8096 21.3602 57.1188 22.0509 57.1188 22.903C57.1188 23.7551 57.8096 24.4459 58.6617 24.4459Z" fill="white"/>
<path d="M45.3052 30.8725C44.9125 30.8725 44.6485 30.6112 44.5199 30.0952C44.4986 30.0116 44.4907 29.8882 44.4801 29.7463C44.4575 29.4199 44.4297 29.0126 44.228 28.9529C44.1922 28.9423 44.1537 28.937 44.1139 28.937C44.0012 28.937 43.8844 28.9781 43.7849 29.0166C43.4002 29.1652 43.0314 29.3522 42.6745 29.534C42.2938 29.7264 41.9011 29.9267 41.4885 30.0792L40.1102 30.59C39.9404 30.6523 39.7639 30.6842 39.5862 30.6842C39.1789 30.6842 38.7902 30.5183 38.4917 30.2185C38.0566 29.7807 37.8841 29.1254 38.0407 28.5085C38.1561 28.0508 38.2728 27.5931 38.3882 27.1355L38.5594 26.4589C38.7424 25.7359 38.9454 24.9611 39.1908 24.193C39.2731 23.933 39.3673 23.6398 39.561 23.4183C39.7294 23.2259 40.0385 23.0919 40.3131 23.0919C40.3649 23.0919 40.4153 23.0972 40.4604 23.1065C40.7297 23.1622 40.9566 23.405 41.0388 23.7234C41.1131 24.0086 41.0733 24.3111 41.0189 24.5963C40.8995 25.2238 40.7204 25.846 40.5453 26.4469C40.3768 27.028 40.203 27.6303 40.085 28.2339C40.0624 28.352 40.0465 28.4647 40.1009 28.5536C40.15 28.6306 40.2389 28.6704 40.3662 28.6704C40.4299 28.6704 40.5029 28.6611 40.5838 28.6412C41.5137 28.4196 42.3867 28.0376 43.18 27.5029C43.3471 27.3902 43.5355 27.2549 43.6602 27.0678C43.9985 26.5597 43.83 25.8699 43.696 25.3153L43.6881 25.2808C43.6748 25.2251 43.6589 25.1654 43.643 25.1018C43.4984 24.5353 43.2781 23.6796 43.7716 23.2578C43.8924 23.1543 44.0542 23.0986 44.2267 23.0986C44.3845 23.0986 44.5411 23.1463 44.6671 23.2312C45.0532 23.4952 45.0969 24.0153 45.1354 24.4743C45.1487 24.6242 45.1606 24.7661 45.1832 24.8948L46.072 29.8749C46.1529 30.33 45.8743 30.7704 45.4511 30.858C45.4021 30.8686 45.3517 30.8739 45.3026 30.8739L45.3052 30.8725Z" fill="white"/>
<path d="M40.3145 23.1087C40.3649 23.1087 40.4127 23.1127 40.4591 23.1233C40.7444 23.183 40.9526 23.447 41.0256 23.7282C41.0986 24.0095 41.0601 24.308 41.0057 24.5945C40.7709 25.8283 40.3119 27.0023 40.0718 28.2321C40.0505 28.3435 40.0306 28.4682 40.0903 28.5637C40.1487 28.6579 40.2562 28.6871 40.3703 28.6871C40.4445 28.6871 40.5215 28.6739 40.5905 28.6579C41.5165 28.4377 42.4026 28.049 43.192 27.5184C43.3737 27.3963 43.5555 27.2623 43.6762 27.0793C44.0251 26.5539 43.842 25.8402 43.7054 25.279C43.5674 24.7086 43.245 23.7335 43.785 23.2719C43.9083 23.1671 44.0675 23.1166 44.2294 23.1166C44.382 23.1166 44.5345 23.1618 44.6605 23.2467C45.162 23.5903 45.0758 24.3716 45.17 24.8983C45.2734 25.4794 45.3769 26.0604 45.4817 26.6415C45.6595 27.6404 45.8386 28.6394 46.0163 29.6383C46.0309 29.7179 46.0455 29.7988 46.0588 29.8784C46.1384 30.3255 45.8664 30.7566 45.4512 30.8429C45.4021 30.8535 45.3544 30.8575 45.3053 30.8575C44.8463 30.8575 44.6353 30.4913 44.5358 30.0933C44.4655 29.8121 44.5332 29.0281 44.2334 28.9392C44.1949 28.9272 44.1538 28.9219 44.114 28.9219C44.0012 28.9219 43.8858 28.9617 43.7783 29.0029C42.9837 29.3093 42.2819 29.7683 41.482 30.0655C41.0229 30.2353 40.5639 30.4064 40.1036 30.5762C39.9338 30.6399 39.7587 30.6704 39.5849 30.6704C39.1896 30.6704 38.8009 30.5112 38.5024 30.2088C38.0725 29.775 37.9001 29.1262 38.0553 28.5147C38.2278 27.8315 38.4015 27.1482 38.5753 26.465C38.769 25.7009 38.9667 24.9514 39.2068 24.2005C39.2944 23.9272 39.3859 23.6473 39.5743 23.4311C39.7401 23.2414 40.0466 23.11 40.3145 23.11M40.3145 23.0755C40.0359 23.0755 39.7202 23.2122 39.5491 23.4072C39.3527 23.6314 39.2585 23.9272 39.175 24.1886C38.9295 24.9567 38.7266 25.7314 38.5435 26.4557L38.3697 27.1376C38.2543 27.594 38.1376 28.049 38.0235 28.5054C37.8656 29.1289 38.0407 29.7895 38.4785 30.2313C38.7796 30.5351 39.1736 30.7023 39.5849 30.7023C39.7653 30.7023 39.9444 30.6704 40.1155 30.6067L41.4926 30.0947C41.9065 29.9408 42.2992 29.7418 42.6799 29.5481C43.0368 29.3677 43.4056 29.1793 43.789 29.032C43.8871 28.9936 44.0025 28.9538 44.1126 28.9538C44.1524 28.9538 44.1883 28.9591 44.2228 28.9684C44.4138 29.0254 44.4403 29.4247 44.4629 29.7471C44.4735 29.8904 44.4814 30.0137 44.5027 30.1C44.634 30.624 44.9033 30.8893 45.304 30.8893C45.3544 30.8893 45.4061 30.884 45.4565 30.8734C45.889 30.7845 46.1729 30.3348 46.0906 29.8705L46.0482 29.629L45.5122 26.6335L45.4698 26.3921L45.2018 24.8903C45.1792 24.763 45.1673 24.6224 45.154 24.4725C45.1142 24.0095 45.0705 23.4854 44.6778 23.2175C44.5491 23.1299 44.3899 23.0808 44.2281 23.0808C44.0503 23.0808 43.8845 23.1392 43.7611 23.244C43.2596 23.6725 43.4799 24.5348 43.6271 25.1052C43.643 25.1676 43.6589 25.2286 43.6722 25.2843L43.6802 25.3188C43.8142 25.8707 43.98 26.5566 43.647 27.058C43.525 27.2424 43.3379 27.3764 43.1721 27.4879C42.3814 28.0198 41.5098 28.4019 40.5812 28.6234C40.5016 28.642 40.43 28.6513 40.3676 28.6513C40.2456 28.6513 40.1606 28.6142 40.1155 28.5425C40.0625 28.4589 40.0784 28.3488 40.1009 28.2347C40.219 27.6311 40.3928 27.0302 40.5613 26.4491C40.7351 25.8482 40.9155 25.226 41.0349 24.5972C41.0893 24.3106 41.1291 24.0055 41.0548 23.7163C40.9712 23.3913 40.7391 23.1445 40.4631 23.0861C40.4154 23.0768 40.3649 23.0715 40.3119 23.0715L40.3145 23.0755Z" fill="white"/>
<path d="M51.5447 30.7115C50.2221 30.7115 48.8968 30.2937 47.8328 29.5017C47.4906 29.247 47.4123 28.7535 47.6604 28.4006C47.9085 28.0477 48.3874 27.9681 48.7296 28.2228C49.722 28.9604 50.9809 29.4964 52.2386 29.3067C52.9231 29.2032 53.5599 28.715 53.5652 27.9681C53.5678 27.7067 53.4816 27.4348 53.2919 27.2557C52.8209 26.8139 51.9732 27.0209 51.4174 27.1403C50.3189 27.3764 48.983 28.0026 48.1274 26.9652C47.4893 26.1931 47.5781 24.9633 48.329 24.1647C48.8318 23.63 49.5681 23.3024 50.5193 23.1923C51.9255 23.0278 53.3728 23.3329 54.5946 24.0519C54.9303 24.2496 55.1399 24.8041 54.8772 25.1384C54.7525 25.2976 54.5363 25.3772 54.3373 25.3387C54.1436 25.3003 53.987 25.1649 53.8318 25.0442C53.0637 24.4499 52.0767 24.1448 51.1069 24.2005C50.6572 24.2257 50.1889 24.3398 49.8679 24.6555C49.5336 24.9832 49.3691 25.746 49.8758 25.9967C50.2712 26.1917 50.5949 26.0538 50.9982 25.9901C51.7092 25.8773 52.4336 25.8521 53.1499 25.9185C54.2245 26.0166 54.9541 26.4106 55.319 27.0899C55.697 27.7943 55.579 28.7229 55.0245 29.4022C54.6477 29.8625 54.1091 30.2008 53.3755 30.433C52.7838 30.62 52.1656 30.7115 51.5461 30.7115H51.5447Z" fill="white"/>
<path d="M47.9824 42.4847C47.8564 42.4847 47.729 42.4435 47.6269 42.3679C47.2872 42.1198 47.2315 41.6025 47.1811 41.1461C47.1652 40.9962 47.1493 40.8556 47.1254 40.7282L46.1888 35.7892C46.1039 35.3382 46.3268 34.8871 46.6863 34.7823C46.7287 34.7704 46.7712 34.7624 46.8136 34.7611C46.8256 34.7611 46.8362 34.7611 46.8468 34.7611C47.4199 34.7611 47.526 35.4721 47.6123 36.0439C47.6322 36.1739 47.6507 36.2973 47.6733 36.4021C47.6852 36.4605 47.6998 36.5149 47.7343 36.5467C47.7595 36.5693 47.7927 36.5799 47.8418 36.5799H47.8656C48.1562 36.5653 48.3777 36.4101 48.6125 36.2442C48.7094 36.1766 48.8102 36.1063 48.915 36.0466L49.0397 35.9763C49.3859 35.7799 49.7441 35.5756 50.105 35.3992L51.2658 34.8314C51.409 34.7611 51.559 34.7226 51.7128 34.7146C51.7301 34.7146 51.7473 34.7146 51.7646 34.7146C52.0962 34.7146 52.4159 34.8645 52.668 35.1378C52.8484 35.3328 52.9864 35.5836 53.066 35.8648C53.3419 35.7096 53.6364 35.5451 53.9323 35.4005L55.0931 34.8327C55.2363 34.7624 55.3862 34.7239 55.5401 34.716C55.5574 34.716 55.5746 34.716 55.5919 34.716C55.9222 34.716 56.2433 34.8659 56.4953 35.1392C56.8827 35.5584 57.0538 36.2058 56.941 36.8279C56.8615 37.271 56.7819 37.7141 56.7023 38.1572L56.5683 38.8975C56.4369 39.6271 56.291 40.4085 56.1079 41.1872C56.0456 41.4499 55.9766 41.7471 55.8187 41.9766C55.6755 42.1848 55.3955 42.3361 55.1554 42.3361C55.1209 42.3361 55.0878 42.3334 55.0559 42.3268C54.8224 42.2817 54.6195 42.0482 54.5372 41.7325C54.4642 41.4512 54.4881 41.1461 54.5239 40.8609C54.5929 40.317 54.7083 39.7757 54.8211 39.2517C54.849 39.119 54.8782 38.985 54.906 38.851C54.9246 38.7648 54.9445 38.6733 54.9657 38.5791C55.0785 38.075 55.2058 37.5045 55.1196 37.0376C55.097 36.9129 55.0546 36.82 54.9962 36.7629C54.9405 36.7086 54.8728 36.6833 54.7866 36.6833C54.7004 36.6833 54.5982 36.7099 54.4749 36.7656C53.9296 37.0084 53.4136 37.344 52.9426 37.7645L52.7423 38.8988C52.611 39.6284 52.4637 40.4111 52.282 41.1885C52.2196 41.4512 52.1506 41.7484 51.9928 41.9779C51.8495 42.1862 51.5696 42.3374 51.3294 42.3374C51.295 42.3374 51.2618 42.3347 51.2299 42.3281C50.9965 42.283 50.7935 42.0495 50.7112 41.7338C50.6383 41.4525 50.6622 41.1474 50.698 40.8622C50.767 40.3183 50.8824 39.7783 50.9938 39.2543C51.023 39.1203 51.0509 38.9864 51.0787 38.8524C51.0973 38.7661 51.1172 38.6746 51.1384 38.5804C51.2512 38.0763 51.3785 37.5058 51.2923 37.0389C51.2697 36.9142 51.2273 36.8213 51.1689 36.7643C51.1132 36.7099 51.0455 36.6847 50.9593 36.6847C50.8731 36.6847 50.7709 36.7112 50.6476 36.7669C49.9657 37.0707 49.3422 37.5085 48.7943 38.0697C48.586 38.2832 48.3591 38.5472 48.2676 38.8842C48.1535 39.2981 48.3008 39.8367 48.4427 40.3594C48.6391 41.0824 48.842 41.8293 48.3963 42.3135C48.2888 42.4303 48.1416 42.4939 47.9811 42.4939L47.9824 42.4847Z" fill="white"/>
<path d="M55.5984 34.7283C55.9195 34.7283 56.2365 34.8716 56.4899 35.1462C56.8733 35.5615 57.0431 36.2035 56.9317 36.8204C56.8083 37.5103 56.6836 38.2001 56.5589 38.8899C56.4196 39.6607 56.2763 40.4182 56.0986 41.1784C56.0336 41.4543 55.9646 41.7395 55.812 41.9624C55.6714 42.1667 55.3981 42.3139 55.162 42.3139C55.1288 42.3139 55.097 42.3113 55.0665 42.3047C54.821 42.2569 54.6327 42.0022 54.561 41.7236C54.4894 41.445 54.5119 41.1452 54.5478 40.8573C54.634 40.1781 54.7905 39.5161 54.9285 38.8501C55.0426 38.3049 55.2442 37.5899 55.1421 37.03C55.1222 36.9239 55.085 36.8164 55.0134 36.7461C54.9497 36.6838 54.8728 36.6612 54.7919 36.6612C54.6857 36.6612 54.573 36.6997 54.4735 36.7448C53.9229 36.9889 53.4042 37.3285 52.9372 37.7464C52.8683 38.1271 52.8006 38.5092 52.7316 38.8899C52.5923 39.6607 52.449 40.4182 52.2713 41.1784C52.2063 41.4543 52.1373 41.7395 51.9847 41.9624C51.8441 42.1667 51.5708 42.3139 51.3347 42.3139C51.3015 42.3139 51.2697 42.3113 51.2392 42.3047C50.9937 42.2569 50.8054 42.0022 50.7337 41.7236C50.6621 41.445 50.6846 41.1452 50.7205 40.8573C50.8067 40.1781 50.9632 39.5161 51.1012 38.8501C51.2153 38.3049 51.4169 37.5899 51.3148 37.03C51.2949 36.9239 51.2577 36.8164 51.1861 36.7461C51.1224 36.6838 51.0455 36.6612 50.9646 36.6612C50.8584 36.6612 50.7457 36.6997 50.6462 36.7448C49.9669 37.0473 49.3341 37.4917 48.7876 38.0515C48.5634 38.281 48.3471 38.5424 48.2569 38.8727C47.9863 39.8584 49.1537 41.4649 48.3896 42.2941C48.2808 42.4121 48.1349 42.4692 47.9863 42.4692C47.8656 42.4692 47.7435 42.4307 47.64 42.3564C47.1983 42.034 47.2447 41.2487 47.1465 40.7273C47.0378 40.1516 46.9276 39.5745 46.8189 38.9987C46.6305 38.0077 46.4434 37.0181 46.2551 36.0271C46.2405 35.9475 46.2245 35.8679 46.2099 35.7883C46.1264 35.3452 46.3439 34.9035 46.6955 34.8C46.7366 34.788 46.7777 34.7814 46.8189 34.7788C46.8295 34.7788 46.8414 34.7788 46.852 34.7788C47.5392 34.7788 47.5406 35.844 47.6626 36.4065C47.6745 36.4622 47.6891 36.5233 47.7289 36.5591C47.7621 36.5896 47.8059 36.5962 47.8483 36.5962C47.8563 36.5962 47.8656 36.5962 47.8735 36.5962C48.2927 36.5763 48.574 36.2632 48.9308 36.0616C49.3235 35.8387 49.7162 35.6119 50.1195 35.4142C50.5069 35.2245 50.8942 35.0361 51.2803 34.8464C51.4236 34.7761 51.5721 34.7389 51.7207 34.731C51.738 34.731 51.7552 34.731 51.7725 34.731C52.0935 34.731 52.4106 34.8743 52.664 35.1489C52.851 35.3518 52.9863 35.6079 53.0646 35.8891C53.3565 35.7246 53.6496 35.5615 53.9481 35.4155C54.3355 35.2258 54.7229 35.0374 55.1089 34.8477C55.2522 34.7774 55.4008 34.7403 55.5494 34.7323C55.5666 34.7323 55.5838 34.7323 55.6011 34.7323M55.5984 34.6952C55.5812 34.6952 55.5626 34.6952 55.5454 34.6952C55.3902 34.7031 55.2376 34.7429 55.0917 34.8132L53.9296 35.381C53.6563 35.515 53.3909 35.6596 53.0805 35.8347C52.9983 35.5601 52.8616 35.3147 52.6839 35.121C52.4291 34.8451 52.1041 34.6925 51.7685 34.6925C51.7512 34.6925 51.7327 34.6925 51.7154 34.6925C51.5602 34.7005 51.4076 34.7403 51.2617 34.8106L50.0996 35.3771C49.7374 35.5535 49.3806 35.7578 49.0343 35.9541L48.9096 36.0244C48.8035 36.0855 48.7027 36.1558 48.6058 36.2234C48.3723 36.3866 48.1534 36.5405 47.8669 36.5551C47.8589 36.5551 47.851 36.5551 47.8443 36.5551C47.7992 36.5551 47.7687 36.5458 47.7475 36.5259C47.717 36.4967 47.7037 36.445 47.6918 36.3906C47.6692 36.2858 47.6507 36.1637 47.6308 36.0337C47.5432 35.4566 47.4357 34.7376 46.8481 34.7376C46.8361 34.7376 46.8255 34.7376 46.8136 34.7376C46.7698 34.7403 46.7247 34.7469 46.6822 34.7602C46.3148 34.8676 46.0866 35.328 46.1728 35.787L46.1954 35.9037L46.2179 36.0258L47.1094 40.7273C47.1333 40.8533 47.1492 40.994 47.1651 41.1439C47.2155 41.6042 47.2712 42.1256 47.6175 42.3776C47.7236 42.4546 47.8536 42.497 47.9836 42.497C48.1495 42.497 48.3007 42.4307 48.4108 42.3113C48.8632 41.8204 48.6589 41.0683 48.4612 40.3426C48.3193 39.8226 48.1733 39.2866 48.2861 38.8767C48.3776 38.5437 48.6018 38.2824 48.8088 38.0701C49.3554 37.5103 49.9775 37.0725 50.6581 36.77C50.7802 36.7156 50.8796 36.6891 50.9632 36.6891C51.0468 36.6891 51.1092 36.7143 51.1622 36.7647C51.2193 36.8204 51.2591 36.9093 51.2816 37.0313C51.3678 37.4943 51.2405 38.0635 51.1277 38.5662C51.1065 38.6604 51.0866 38.752 51.068 38.8382C51.0402 38.9722 51.011 39.1062 50.9831 39.2402C50.8717 39.7642 50.7549 40.3054 50.6873 40.8494C50.6515 41.1372 50.6276 41.4437 50.7006 41.7276C50.7841 42.0486 50.9924 42.2874 51.2325 42.3338C51.2644 42.3405 51.2989 42.3431 51.3347 42.3431C51.5814 42.3431 51.8653 42.1892 52.0126 41.977C52.1731 41.7448 52.2421 41.4463 52.3044 41.1823C52.4875 40.4049 52.6334 39.6222 52.7648 38.8913L52.9691 37.7583C53.4374 37.3431 53.9481 37.0101 54.4881 36.77C54.6101 36.7156 54.7096 36.6891 54.7932 36.6891C54.8768 36.6891 54.9391 36.7143 54.9922 36.7647C55.0492 36.8204 55.089 36.9093 55.1116 37.0313C55.1978 37.4943 55.0704 38.0635 54.9577 38.5662C54.9365 38.6604 54.9166 38.752 54.898 38.8382C54.8701 38.9722 54.8409 39.1062 54.8131 39.2402C54.7016 39.7642 54.5849 40.3054 54.5159 40.8494C54.4801 41.1372 54.4562 41.4437 54.5292 41.7276C54.6128 42.0486 54.821 42.2874 55.0612 42.3338C55.093 42.3405 55.1275 42.3431 55.1633 42.3431C55.4101 42.3431 55.694 42.1892 55.8412 41.977C56.0017 41.7448 56.0707 41.4463 56.1331 41.1823C56.3161 40.4049 56.4621 39.6222 56.5934 38.8913L56.7181 38.1988C56.8004 37.7398 56.8839 37.2808 56.9662 36.8217C57.0789 36.1943 56.9065 35.5416 56.5165 35.1184C56.2617 34.8424 55.9367 34.6899 55.6011 34.6899L55.5984 34.6952Z" fill="white"/>
<path d="M69.7153 27.5127C69.6848 27.461 69.637 27.4185 69.5866 27.3853C69.373 27.246 69.0705 27.2633 68.8729 27.4238C68.792 27.4901 68.7296 27.5764 68.6686 27.6613C68.3833 28.0566 68.1419 28.3803 67.7028 28.6125C67.3168 28.8168 66.8816 28.9202 66.4452 28.9202C65.0509 28.9202 63.9193 27.8828 63.9193 26.6026C63.9193 25.3224 65.0496 24.285 66.4452 24.285C67.2783 24.285 68.2693 24.7493 68.6633 25.5148C68.7522 25.6873 68.8291 25.8703 68.9671 26.007C69.105 26.1436 69.3266 26.2179 69.4951 26.1237C69.6251 26.0508 69.6914 25.8942 69.6927 25.7456C69.6941 25.5971 69.641 25.4525 69.5813 25.3171C69.3107 24.7016 68.8132 24.2028 68.2626 23.8273C67.5595 23.3471 66.7118 23.0977 65.8615 23.0977C63.6221 23.0977 61.8073 24.7785 61.8073 26.852C61.8073 28.9255 63.6221 30.6064 65.8615 30.6064C66.7357 30.6064 67.6073 30.3424 68.3223 29.8356C68.6672 29.5902 68.975 29.2917 69.2244 28.9481C69.4738 28.6045 69.763 28.1468 69.7657 27.7356C69.7657 27.6586 69.7538 27.579 69.7153 27.5127Z" fill="white"/>
<path d="M43.3737 34.898C41.1808 34.898 39.4031 36.5244 39.4031 38.5316C39.4031 40.5388 41.1808 42.1652 43.3737 42.1652C45.5666 42.1652 47.3443 40.5388 47.3443 38.5316C47.3443 36.5244 45.5666 34.898 43.3737 34.898ZM43.8685 40.6436C42.6149 40.6436 41.5974 39.5359 41.5974 38.1708C41.5974 36.8057 42.6135 35.6979 43.8685 35.6979C45.1235 35.6979 46.1397 36.8057 46.1397 38.1708C46.1397 39.5359 45.1235 40.6436 43.8685 40.6436Z" fill="white"/>
<path d="M32.627 35.8068C32.6443 35.8864 32.6628 35.966 32.6801 36.0456C32.899 37.0366 33.1192 38.0262 33.3381 39.0172C33.4655 39.593 33.5928 40.17 33.7202 40.7458C33.8356 41.2685 33.7812 42.0538 34.2972 42.3749C34.5639 42.5407 34.942 42.5275 35.1715 42.3139C36.0643 41.4847 34.7005 39.8769 35.0176 38.8925C35.1237 38.5622 35.3771 38.3008 35.6371 38.0713C36.2752 37.5115 37.0142 37.0671 37.8075 36.7646C38.0144 36.6863 38.2691 36.624 38.4376 36.7659C38.5212 36.8363 38.565 36.9437 38.5875 37.0498C38.7083 37.6083 38.4708 38.3247 38.3395 38.87C38.1776 39.5359 37.9945 40.1979 37.895 40.8771C37.8526 41.165 37.8261 41.4648 37.9096 41.7434C37.9932 42.022 38.2134 42.278 38.5 42.3245C38.7958 42.3736 39.1845 42.2144 39.3702 41.9822C39.5493 41.7593 39.6303 41.4741 39.7059 41.1982C39.9142 40.438 40.0813 39.6805 40.2432 38.9098C40.3878 38.2199 40.5337 37.5301 40.6783 36.8402C40.8083 36.222 40.6106 35.5813 40.1622 35.166C39.8505 34.8768 39.4565 34.7336 39.0611 34.7495C38.8873 34.7561 38.7136 34.7946 38.5464 34.8649C38.094 35.0546 37.643 35.243 37.1906 35.4327C36.7197 35.6304 36.262 35.8559 35.803 36.0801C35.3864 36.2831 35.0574 36.5948 34.5679 36.6147C34.5095 36.6174 34.4458 36.6147 34.3994 36.5776C34.3543 36.5417 34.337 36.4807 34.3225 36.425C34.1792 35.8546 34.1792 34.7641 33.3381 34.7986C33.2903 34.7999 33.2413 34.8079 33.1935 34.8198C32.7822 34.9219 32.5275 35.365 32.6257 35.8081L32.627 35.8068Z" fill="white"/>
<path d="M33.0369 36.9169H31.3163C30.7923 36.9169 30.3678 37.36 30.3678 37.9066V38.0326C30.3678 38.2992 30.4792 38.607 30.6875 38.7742C30.848 38.9028 31.2407 38.879 31.3044 39.0766C31.4994 39.6935 29.8783 40.0411 29.536 40.0411C28.0435 40.0411 26.835 38.6415 26.835 36.9142C26.835 34.1668 29.4139 33.0246 31.7236 34.1204C31.8921 34.2013 32.0831 34.2889 32.2595 34.2265C32.4545 34.1575 32.5474 33.9161 32.5076 33.7118C32.4678 33.5075 32.3272 33.339 32.176 33.1984C31.3747 32.4528 30.0733 32.1225 29.0027 32.1225C26.4755 32.1225 24.4272 34.4056 24.4272 37.222C24.4272 40.0384 26.4755 42.3215 29.0027 42.3215C30.0016 42.3215 30.9727 41.9501 31.7501 41.2987C32.1468 40.9657 32.489 40.5651 32.7663 40.1194C32.96 39.8076 32.9467 39.3406 33.1802 39.0607C33.5013 38.6773 33.9855 38.7092 33.9855 38.0326V37.9066C33.9855 37.36 33.561 36.9169 33.0369 36.9169Z" fill="white"/>
<path d="M0.0876154 15.2206C0.100882 15.1887 1.41158 12.0208 5.37818 11.3442C6.07465 11.2261 6.68357 11.1306 7.22218 11.047C9.80643 10.6451 10.9871 10.462 14.0092 8.87536C16.8044 7.40812 19.7163 3.43224 19.7455 3.39111L19.7733 3.40836C19.7428 3.46806 16.7274 9.43785 13.3949 10.9661C10.5706 12.2609 9.22935 12.367 7.19962 12.5275C6.46335 12.5859 5.63023 12.6522 4.60874 12.7876C1.99795 13.1338 0.13272 15.2166 0.114147 15.2378L0.0504702 15.3095L0.0862885 15.2206H0.0876154Z" fill="white"/>
<path d="M19.76 3.40167C19.76 3.40167 16.7565 9.40861 13.3896 10.9515C9.52248 12.7252 8.38424 12.2701 4.60735 12.7703C1.95942 13.1205 0.10215 15.2258 0.10215 15.2258C0.10215 15.2258 1.3757 12.0419 5.38077 11.3601C9.38451 10.6782 10.3556 10.8122 14.0171 8.8899C16.8481 7.40409 19.76 3.40167 19.76 3.40167ZM19.7321 3.38177C19.703 3.42157 16.7924 7.3948 14.0011 8.86071C10.9818 10.446 9.80239 10.6291 7.21946 11.0311C6.68218 11.1146 6.07194 11.2088 5.37546 11.3282C1.39958 12.0061 0.0849038 15.1821 0.0716376 15.2152L0 15.393L0.127355 15.2497C0.145928 15.2285 2.00718 13.1497 4.61133 12.8048C5.63283 12.6694 6.46595 12.6031 7.20222 12.5461C9.2346 12.3855 10.5758 12.2794 13.4028 10.9833C16.7406 9.45239 19.7587 3.47862 19.7892 3.41759L19.7321 3.3831V3.38177Z" fill="white"/>
<path d="M0.0877316 18.0532C0.100998 18.0213 1.4117 14.8534 5.37829 14.1768C6.07477 14.0587 6.68368 13.9632 7.22229 13.8796C9.80655 13.4777 10.9872 13.2946 14.0093 11.7079C16.8045 10.2407 19.7164 6.26482 19.7456 6.2237L19.7734 6.24094C19.7429 6.30064 16.7275 12.2704 13.3951 13.7987C10.5707 15.0935 9.22947 15.1996 7.19974 15.3601C6.46347 15.4185 5.63035 15.4848 4.60885 15.6201C1.99806 15.9664 0.132836 18.0492 0.114264 18.0704L0.0505865 18.142L0.0864047 18.0532H0.0877316Z" fill="white"/>
<path d="M19.7601 6.23419C19.7601 6.23419 16.7567 12.2411 13.3897 13.784C9.52259 15.5577 8.38435 15.1026 4.60747 15.6028C1.95953 15.953 0.102267 18.0584 0.102267 18.0584C0.102267 18.0584 1.37582 14.8745 5.38089 14.1926C9.38462 13.5107 10.3557 13.6447 14.0172 11.7224C16.8482 10.2366 19.7601 6.23419 19.7601 6.23419ZM19.7323 6.2143C19.7031 6.25409 16.7925 10.2273 14.0013 11.6932C10.9819 13.2785 9.80251 13.4616 7.21958 13.8636C6.6823 13.9472 6.07206 14.0414 5.37558 14.1607C1.3997 14.8386 0.08502 18.0146 0.0717538 18.0477L0.000116226 18.2255L0.127472 18.0822C0.146044 18.061 2.00729 15.9822 4.61145 15.6373C5.63294 15.502 6.46606 15.4356 7.20234 15.3786C9.23472 15.2181 10.5759 15.1119 13.403 13.8158C16.7407 12.2849 19.7588 6.31114 19.7893 6.25011L19.7323 6.21562V6.2143Z" fill="white"/>
<path d="M0.0877316 20.8718C0.100998 20.8399 1.4117 17.672 5.37829 16.9954C6.07477 16.8773 6.68368 16.7818 7.22229 16.6982C9.80655 16.2963 10.9872 16.1132 14.0093 14.5265C16.8045 13.0593 19.7164 9.08342 19.7456 9.0423L19.7734 9.05954C19.7429 9.11924 16.7275 15.089 13.3951 16.6173C10.5707 17.9121 9.22947 18.0182 7.19974 18.1787C6.46347 18.2371 5.63035 18.3034 4.60885 18.4387C1.99806 18.785 0.132836 20.8678 0.114264 20.889L0.0505865 20.9606L0.0864047 20.8718H0.0877316Z" fill="white"/>
<path d="M19.7601 9.05268C19.7601 9.05268 16.7567 15.0596 13.3897 16.6025C9.52259 18.3762 8.38435 17.9211 4.60747 18.4213C1.95953 18.7715 0.102267 20.8768 0.102267 20.8768C0.102267 20.8768 1.37582 17.6929 5.38089 17.0111C9.38462 16.3292 10.3557 16.4632 14.0172 14.5409C16.8482 13.0551 19.7601 9.05268 19.7601 9.05268ZM19.7323 9.03278C19.7031 9.07257 16.7925 13.0458 14.0013 14.5117C10.9819 16.097 9.80251 16.2801 7.21958 16.6821C6.6823 16.7656 6.07206 16.8598 5.37558 16.9792C1.3997 17.6571 0.08502 20.8331 0.0717538 20.8662L0.000116226 21.044L0.127472 20.9007C0.146044 20.8795 2.00729 18.8007 4.61145 18.4558C5.63294 18.3204 6.46606 18.2541 7.20234 18.1971C9.23472 18.0365 10.5759 17.9304 13.403 16.6343C16.7407 15.1034 19.7588 9.12962 19.7893 9.06859L19.7323 9.0341V9.03278Z" fill="white"/>
<path d="M0.0877316 23.8345C0.100998 23.8027 1.4117 20.6347 5.37829 19.9582C6.07477 19.8401 6.68501 19.7446 7.22229 19.661C9.80655 19.259 10.9872 19.076 14.0093 17.4893C16.8045 16.0221 19.7164 12.0462 19.7456 12.0051L19.7734 12.0223C19.7429 12.082 16.7275 18.0518 13.3951 19.5801C10.5707 20.8748 9.22947 20.981 7.19974 21.1415C6.46347 21.1999 5.63035 21.2649 4.60885 21.4015C1.99806 21.7478 0.132836 23.8306 0.114264 23.8518L0.0505865 23.9234L0.0864047 23.8345H0.0877316Z" fill="white"/>
<path d="M19.7601 12.0155C19.7601 12.0155 16.7567 18.0224 13.3897 19.5653C9.52259 21.339 8.38435 20.884 4.60747 21.3841C1.95953 21.7343 0.102267 23.8397 0.102267 23.8397C0.102267 23.8397 1.37582 20.6558 5.38089 19.9739C9.38462 19.292 10.3557 19.426 14.0172 17.5037C16.8482 16.0179 19.7601 12.0155 19.7601 12.0155ZM19.7323 11.9956C19.7031 12.0354 16.7925 16.0086 14.0013 17.4745C10.9819 19.0599 9.80251 19.2429 7.21958 19.6449C6.6823 19.7285 6.07206 19.8227 5.37558 19.9421C1.3997 20.62 0.08502 23.7959 0.0717538 23.8291L0.000116226 24.0068L0.127472 23.8635C0.146044 23.8423 2.00729 21.7635 4.61145 21.4186C5.63294 21.2833 6.46606 21.2169 7.20234 21.1599C9.23472 20.9994 10.5759 20.8932 13.403 19.5971C16.7407 18.0662 19.7588 12.0924 19.7893 12.0314L19.7323 11.9969V11.9956Z" fill="white"/>
<path d="M0.0877316 26.7514C0.100998 26.7196 1.4117 23.5516 5.37829 22.875C6.07477 22.757 6.68368 22.6614 7.22229 22.5779C9.80787 22.1759 10.9872 21.9928 14.0093 20.4062C16.8045 18.9389 19.7164 14.9631 19.7456 14.9219L19.7734 14.9392C19.7429 14.9989 16.7275 20.9687 13.3951 22.4969C10.5707 23.7917 9.22947 23.8978 7.19974 24.0584C6.46347 24.1167 5.63035 24.1817 4.60885 24.3184C1.99806 24.6646 0.132836 26.7474 0.114264 26.7687L0.0505865 26.8403L0.0864047 26.7514H0.0877316Z" fill="white"/>
<path d="M19.7601 14.9327C19.7601 14.9327 16.7567 20.9396 13.3897 22.4825C9.52259 24.2562 8.38435 23.8011 4.60747 24.3013C1.95953 24.6515 0.102267 26.7568 0.102267 26.7568C0.102267 26.7568 1.37582 23.573 5.38089 22.8911C9.38462 22.2092 10.3557 22.3432 14.0172 20.4209C16.8482 18.9351 19.7601 14.9327 19.7601 14.9327ZM19.7323 14.9128C19.7031 14.9526 16.7925 18.9258 14.0013 20.3917C10.9819 21.977 9.80251 22.1601 7.21958 22.5621C6.6823 22.6456 6.07206 22.7398 5.37558 22.8592C1.3997 23.5371 0.08502 26.7131 0.0717538 26.7462L0.000116226 26.924L0.127472 26.7807C0.146044 26.7595 2.00729 24.6807 4.61145 24.3358C5.63294 24.2004 6.46606 24.1341 7.20234 24.0771C9.23472 23.9165 10.5759 23.8104 13.403 22.5143C16.7407 20.9834 19.7588 15.0096 19.7893 14.9486L19.7323 14.9141V14.9128Z" fill="white"/>
<path d="M20.1978 3.27442H19.6102V12.5608H20.1978V3.27442Z" fill="white"/>
<path d="M20.1818 3.29006V12.5432H19.6272V3.29006H20.1818ZM20.2149 3.2569H19.5941V12.5764H20.2149V3.2569Z" fill="white"/>
<path d="M21.4063 4.87158C20.6315 4.87158 20.0226 4.58768 19.7374 4.09418C19.4628 3.61792 19.5013 2.99839 19.8488 2.34967C20.1951 1.70361 20.804 1.1053 21.5668 0.666191C22.2898 0.248306 23.0765 0.0188007 23.7823 0.0188007C24.557 0.0188007 25.1659 0.302697 25.4512 0.7962C25.7258 1.27246 25.6873 1.89199 25.3397 2.5407C24.9935 3.18677 24.3846 3.78507 23.6217 4.22419C22.8987 4.64207 22.1121 4.87158 21.4063 4.87158Z" fill="white"/>
<path d="M23.7824 0.0344924C24.5266 0.0344924 25.1421 0.293183 25.4366 0.803932C25.9991 1.779 25.1833 3.30328 23.6139 4.20936C22.867 4.64052 22.083 4.8541 21.4064 4.8541C20.6621 4.8541 20.0466 4.59541 19.7521 4.08466C19.1896 3.1096 20.0055 1.58531 21.5749 0.679229C22.3217 0.248078 23.1058 0.0344924 23.7824 0.0344924ZM23.7837 0.0013269C23.0753 0.0013269 22.2846 0.232159 21.5603 0.650044C20.7961 1.09181 20.1832 1.69144 19.837 2.34016C19.4868 2.99418 19.447 3.61902 19.7255 4.10058C20.0134 4.59939 20.6276 4.88594 21.4077 4.88594C22.1161 4.88594 22.9068 4.65511 23.6311 4.23722C25.2138 3.32318 26.0376 1.77502 25.4658 0.785359C25.178 0.28655 24.5637 0 23.7837 0V0.0013269Z" fill="white"/>
<path d="M7.53672 30.0341C7.52611 30.0208 6.45553 28.6955 4.67255 28.4435C4.55448 28.4276 4.43376 28.4183 4.31436 28.4183C3.15357 28.4183 2.25147 29.1957 2.24218 29.2036L2.19708 29.2434L2.21565 29.1864C2.22361 29.1625 3.02356 26.7892 4.92593 26.7892C5.044 26.7892 5.16472 26.7985 5.28677 26.817C7.44916 27.1394 7.56591 29.9956 7.56723 30.0248V30.0752L7.53805 30.0354L7.53672 30.0341Z" fill="white"/>
<path d="M4.92422 26.8047C5.03964 26.8047 5.15904 26.814 5.28241 26.8312C7.45674 27.1549 7.54828 30.0231 7.54828 30.0231C7.54828 30.0231 6.48433 28.6819 4.67349 28.4258C4.55144 28.4086 4.43072 28.4006 4.31265 28.4006C3.13329 28.4006 2.22986 29.19 2.22986 29.19C2.22986 29.19 3.01124 26.8047 4.92422 26.8047ZM4.92422 26.7715C3.00991 26.7715 2.20731 29.1568 2.19935 29.1807L2.1622 29.2948L2.25374 29.2152C2.26302 29.2072 3.16114 28.4338 4.3153 28.4338C4.4347 28.4338 4.55542 28.4417 4.67216 28.459C6.44984 28.7097 7.51511 30.0297 7.52572 30.043L7.58807 30.1212L7.58542 30.0204C7.58542 29.9912 7.46735 27.1218 5.29037 26.7981C5.16832 26.7795 5.04627 26.7702 4.92688 26.7702L4.92422 26.7715Z" fill="white"/>
<path d="M12.429 30.0233C12.429 29.9942 12.547 27.1379 14.7094 26.8156C14.8315 26.797 14.9522 26.7877 15.0703 26.7877C16.9726 26.7877 17.7726 29.161 17.7805 29.1849L17.7991 29.242L17.754 29.2022C17.7447 29.1942 16.8413 28.4168 15.6818 28.4168C15.5611 28.4168 15.4404 28.4248 15.3236 28.442C13.5407 28.6941 12.4701 30.0194 12.4595 30.0326L12.4276 30.0724V30.022L12.429 30.0233Z" fill="white"/>
<path d="M15.0704 26.8047C16.9821 26.8047 17.7648 29.19 17.7648 29.19C17.7648 29.19 16.8614 28.4006 15.682 28.4006C15.5639 28.4006 15.4432 28.4086 15.3212 28.4258C13.5103 28.6819 12.4464 30.0231 12.4464 30.0231C12.4464 30.0231 12.5392 27.1549 14.7123 26.8312C14.8356 26.8127 14.955 26.8047 15.0704 26.8047ZM15.0704 26.7715C14.9524 26.7715 14.829 26.7808 14.7069 26.7994C12.5313 27.1231 12.4132 29.9939 12.4119 30.0218L12.4092 30.1226L12.4716 30.0443C12.4822 30.031 13.5488 28.7097 15.3251 28.4603C15.4419 28.4444 15.5613 28.4351 15.682 28.4351C16.8362 28.4351 17.7343 29.2085 17.7436 29.2165L17.8351 29.2961L17.798 29.1807C17.79 29.1568 16.9861 26.7715 15.0731 26.7715H15.0704Z" fill="white"/>
<path d="M10.1583 38.0859C8.7707 38.0859 8.27189 37.6123 8.0981 37.2157C8.0384 37.079 7.96411 36.9053 7.87788 36.7063C7.35254 35.4818 6.37482 33.2013 5.76988 32.4452L5.75927 32.4319L5.97684 32.2727L5.98612 32.2899C5.99939 32.3151 7.28488 34.8636 10.1889 34.9021C13.0928 34.8636 14.3783 32.3165 14.3916 32.2899L14.4009 32.2727L14.6184 32.4319L14.6078 32.4452C14.0042 33.2013 13.0252 35.4818 12.4998 36.7063C12.4136 36.9053 12.3393 37.079 12.2796 37.2157C12.1058 37.6137 11.607 38.0859 10.2194 38.0859H10.1583Z" fill="white"/>
<path d="M14.4071 32.2978L14.5942 32.4344C13.8924 33.314 12.6984 36.2193 12.2646 37.2089C11.8932 38.058 10.5878 38.0699 10.219 38.0699C10.2084 38.0699 10.1977 38.0699 10.1885 38.0699C10.1792 38.0699 10.1686 38.0699 10.158 38.0699C9.79048 38.0699 8.48376 38.058 8.1123 37.2089C7.67983 36.2193 6.48587 33.3153 5.78276 32.4344L5.96981 32.2978C5.96981 32.2978 7.23939 34.8807 10.1871 34.9192C13.1362 34.8807 14.4045 32.2978 14.4045 32.2978M14.3938 32.2474L14.3766 32.2832C14.3633 32.3084 13.0818 34.8475 10.1885 34.886C7.29643 34.8475 6.01359 32.3097 6.00032 32.2832L5.98308 32.2474L5.95124 32.2712L5.76418 32.4079L5.73633 32.4278L5.75755 32.4543C6.35984 33.2092 7.33756 35.4883 7.8629 36.7114C7.9478 36.9104 8.02342 37.0842 8.08312 37.2209C8.25823 37.6228 8.76102 38.1017 10.158 38.1017H10.2216C11.6186 38.1017 12.1213 37.6228 12.2965 37.2209C12.3562 37.0842 12.4305 36.9104 12.5167 36.7114C13.042 35.487 14.0197 33.2092 14.622 32.4543L14.6433 32.4278L14.6154 32.4079L14.4283 32.2712L14.3965 32.2474H14.3938Z" fill="white"/>
<path d="M12.9133 43.9855C11.6172 43.9855 10.6647 43.224 10.2057 42.761C9.74668 43.224 8.79549 43.9855 7.49806 43.9855C6.90108 43.9855 6.29747 43.8223 5.70447 43.4986C4.93237 43.0781 4.4455 42.4838 4.25978 41.7329C4.12181 41.1771 4.15895 40.5509 4.37121 39.8703C4.1762 39.9048 3.97853 39.9234 3.78087 39.9234C2.83233 39.9234 1.97136 39.5228 1.47786 38.8502C1.16875 38.4296 0.868937 37.7159 1.18865 36.701C1.42214 35.9581 1.98993 35.2617 2.78458 34.739L2.87479 34.6793L2.80713 34.7629C2.34281 35.3306 1.92891 36.4304 2.07483 37.3498C2.15178 37.8327 2.372 38.1935 2.72753 38.4217C2.99816 38.5955 3.32584 38.6843 3.69994 38.6843C4.18947 38.6843 4.76124 38.5251 5.26801 38.2479C5.36618 38.1948 5.47761 38.1656 5.58905 38.1656C5.76947 38.1656 5.94326 38.2386 6.06531 38.3646C6.27226 38.5782 6.29879 38.8966 6.13164 39.1394C5.89019 39.4909 5.31179 40.5907 5.52537 41.445C5.6262 41.8483 5.89417 42.1627 6.3439 42.4082C6.72862 42.6178 7.11599 42.7239 7.4954 42.7239C8.79947 42.7239 9.61799 41.4742 9.65249 41.4212L9.66443 41.4066C9.67769 41.388 9.69228 41.3707 9.70688 41.3535C9.7228 41.3349 9.73474 41.3217 9.74668 41.3097C9.75862 41.2978 9.77188 41.2872 9.78515 41.2766C9.81035 41.2567 9.82893 41.2421 9.84883 41.2288L9.86342 41.2182C9.87005 41.2142 9.87668 41.2116 9.88464 41.2076L9.89791 41.2009C9.91914 41.1903 9.93904 41.1797 9.96159 41.1718C9.98149 41.1638 10.0001 41.1585 10.02 41.1519C10.0399 41.1465 10.0598 41.1412 10.081 41.1373C10.1022 41.1333 10.1234 41.1306 10.1447 41.1293C10.1659 41.128 10.1858 41.1253 10.207 41.1253C10.2282 41.1253 10.2481 41.1266 10.268 41.1293C10.2893 41.1306 10.3105 41.1333 10.3317 41.1373C10.3516 41.1412 10.3715 41.1465 10.3914 41.1519C10.4113 41.1572 10.4312 41.1638 10.4511 41.1718C10.4723 41.1797 10.4936 41.1903 10.5148 41.2009L10.5281 41.2076C10.5347 41.2102 10.5426 41.2142 10.5493 41.2182L10.5639 41.2288C10.5838 41.2407 10.6023 41.2553 10.6196 41.2699C10.6395 41.2858 10.6528 41.2965 10.6647 41.3084C10.678 41.3203 10.6886 41.3336 10.7005 41.3482C10.7191 41.3707 10.735 41.388 10.7469 41.4066L10.7443 41.4304L10.7576 41.4212C10.8451 41.5551 11.6491 42.7266 12.9067 42.7266C13.2874 42.7266 13.6775 42.6191 14.0662 42.4082C14.5172 42.1627 14.7852 41.847 14.886 41.4424C15.1394 40.4182 14.2877 39.1526 14.2797 39.1394C14.1113 38.8966 14.1378 38.5769 14.3461 38.3633C14.4681 38.2373 14.6419 38.1656 14.821 38.1656C14.9351 38.1656 15.0465 38.1948 15.1447 38.2492C15.1527 38.2532 15.942 38.6804 16.7565 38.6804C17.2567 38.6804 17.6547 38.5172 17.9386 38.1961C18.4851 37.5779 18.5913 36.7594 18.2384 35.8918C18.2291 35.8706 18.2238 35.856 18.2225 35.8494C18.107 35.4354 17.4132 34.5068 17.4053 34.4975L17.3469 34.4206L17.4278 34.4736C17.4358 34.479 18.245 35.0189 18.5767 35.2948C19.4257 36.0006 20.0041 37.8472 18.9773 39.1341C18.5249 39.7019 17.8948 39.9778 17.0524 39.9778C16.6677 39.9778 16.2949 39.9181 16.0402 39.8717C16.2524 40.5522 16.2896 41.1784 16.1516 41.7342C15.9659 42.4864 15.479 43.0794 14.7069 43.5C14.1139 43.8223 13.5103 43.9868 12.9133 43.9868V43.9855Z" fill="white"/>
<path d="M17.42 34.4881C17.42 34.4881 18.2332 35.0294 18.5675 35.308C19.394 35.9938 20.0122 37.8126 18.9655 39.1233C18.4428 39.7787 17.7344 39.9604 17.0538 39.9604C16.6903 39.9604 16.3335 39.9087 16.0177 39.849C16.1955 40.4102 16.299 41.0775 16.1371 41.7288C15.9514 42.4757 15.4685 43.0661 14.7004 43.4839C14.0676 43.8289 13.4666 43.9682 12.9148 43.9682C11.7699 43.9682 10.8267 43.3672 10.2071 42.7371C9.5876 43.3672 8.64437 43.9682 7.4995 43.9682C6.9463 43.9682 6.34667 43.8275 5.71387 43.4839C4.94576 43.0661 4.46154 42.4757 4.27714 41.7288C4.11529 41.0775 4.21877 40.4102 4.39653 39.849C4.19091 39.8875 3.98528 39.9061 3.78231 39.9061C2.08556 39.9061 0.610363 38.594 1.20602 36.7049C1.46338 35.889 2.08026 35.2218 2.79531 34.7521C2.06168 35.6503 1.55624 37.6893 2.71969 38.4348C3.01287 38.6232 3.35249 38.7002 3.70139 38.7002C4.25061 38.7002 4.82503 38.5091 5.27741 38.2624C5.37558 38.2093 5.48436 38.1828 5.59049 38.1828C5.76163 38.1828 5.93143 38.2491 6.05481 38.3765C6.25513 38.5834 6.28166 38.8952 6.11849 39.13C5.87704 39.4829 5.29466 40.5879 5.50957 41.4489C5.61172 41.8575 5.88235 42.1746 6.33605 42.4226C6.75394 42.6508 7.14264 42.741 7.49552 42.741C8.80489 42.741 9.62342 41.498 9.66587 41.4317C9.66985 41.4264 9.67383 41.4224 9.67781 41.4171C9.68975 41.3985 9.70434 41.3813 9.72026 41.364C9.73353 41.3494 9.74546 41.3348 9.75873 41.3216C9.772 41.3083 9.78792 41.2963 9.80251 41.2844C9.81976 41.2698 9.83833 41.2565 9.8569 41.2446C9.86221 41.242 9.86619 41.2367 9.87149 41.234C9.88211 41.2274 9.89405 41.2234 9.90466 41.2181C9.92456 41.2075 9.94446 41.1982 9.96568 41.1889C9.98426 41.1809 10.0042 41.1756 10.0227 41.1703C10.0426 41.165 10.0612 41.1597 10.0811 41.1557C10.1023 41.1517 10.1222 41.1491 10.1435 41.1478C10.1634 41.1464 10.1833 41.1451 10.2031 41.1451C10.223 41.1451 10.2429 41.1464 10.2628 41.1478C10.2841 41.1491 10.304 41.1517 10.3252 41.1557C10.3451 41.1597 10.365 41.165 10.3836 41.1703C10.4035 41.1756 10.422 41.1823 10.4406 41.1889C10.4618 41.1969 10.4817 41.2075 10.5016 41.2181C10.5123 41.2234 10.5242 41.2274 10.5348 41.234C10.5401 41.2367 10.5441 41.242 10.5494 41.2446C10.568 41.2565 10.5865 41.2711 10.6038 41.2844C10.6184 41.2963 10.6343 41.3083 10.6476 41.3216C10.6608 41.3348 10.6741 41.3494 10.686 41.364C10.7006 41.3813 10.7152 41.3985 10.7285 41.4171C10.7325 41.4224 10.7365 41.4264 10.7404 41.4317C10.8479 41.5948 11.6439 42.745 12.9028 42.745C13.257 42.745 13.6484 42.6535 14.0702 42.424C14.5253 42.1759 14.7959 41.8562 14.8981 41.4476C15.1528 40.4181 14.2971 39.1446 14.2891 39.1313C14.126 38.8952 14.1525 38.5834 14.3541 38.3765C14.4775 38.2504 14.646 38.1841 14.8171 38.1841C14.9259 38.1841 15.0347 38.2106 15.1329 38.265C15.1435 38.2717 15.9408 38.6988 16.7527 38.6988C17.1851 38.6988 17.6216 38.5781 17.948 38.2093C18.8766 37.1586 18.2571 35.9275 18.2345 35.8479C18.1178 35.4261 17.4147 34.4895 17.4147 34.4895M17.2767 34.3528L17.3934 34.508C17.4001 34.5173 18.0939 35.4446 18.208 35.8546C18.2093 35.8612 18.2159 35.8771 18.2252 35.8997C18.5754 36.762 18.4706 37.5739 17.9294 38.1868C17.6481 38.5038 17.2555 38.6657 16.7593 38.6657C15.9554 38.6657 15.1621 38.2398 15.1541 38.2358C15.0533 38.1801 14.9379 38.1509 14.8224 38.1509C14.638 38.1509 14.4616 38.2252 14.3356 38.3539C14.122 38.5728 14.0941 38.9005 14.2679 39.1512C14.2759 39.1631 15.1223 40.4301 14.8729 41.441C14.7734 41.8416 14.508 42.1533 14.061 42.3961C13.6749 42.6057 13.2875 42.7132 12.9095 42.7132C11.6598 42.7132 10.8612 41.5484 10.7749 41.4157C10.7723 41.4118 10.7696 41.4078 10.7656 41.4051C10.7497 41.3826 10.7338 41.364 10.7192 41.3468L10.7139 41.3401C10.702 41.3269 10.6913 41.3136 10.6781 41.3017C10.6661 41.2897 10.6515 41.2791 10.6383 41.2672L10.6316 41.2619C10.6131 41.2473 10.5945 41.2327 10.5746 41.2194C10.5666 41.2141 10.564 41.2101 10.5587 41.2075C10.5507 41.2035 10.5428 41.1995 10.5361 41.1968C10.5322 41.1955 10.5282 41.1929 10.5242 41.1915C10.503 41.1809 10.4817 41.1703 10.4592 41.161C10.4393 41.1531 10.4194 41.1478 10.3982 41.1411C10.3783 41.1358 10.357 41.1292 10.3358 41.1252C10.3146 41.1212 10.292 41.1186 10.2708 41.1173C10.2496 41.1159 10.2284 41.1133 10.2071 41.1133C10.1859 41.1133 10.1647 41.1146 10.1435 41.1173C10.1222 41.1186 10.0997 41.1212 10.0784 41.1252C10.0572 41.1292 10.0373 41.1345 10.0161 41.1411C9.9962 41.1464 9.97497 41.1531 9.95507 41.161C9.93252 41.1703 9.91129 41.1809 9.89007 41.1915C9.88609 41.1942 9.88211 41.1955 9.87813 41.1968C9.87017 41.2008 9.86221 41.2035 9.85558 41.2075C9.8516 41.2101 9.84761 41.2128 9.84363 41.2154C9.81976 41.2313 9.80118 41.2459 9.78261 41.2605L9.77598 41.2658C9.76271 41.2765 9.74812 41.2871 9.73618 41.299C9.72424 41.3109 9.7123 41.3242 9.70036 41.3375L9.69505 41.3441C9.67913 41.3627 9.66454 41.3799 9.65128 41.3998C9.64464 41.4065 9.64199 41.4104 9.63934 41.4144C9.60484 41.4675 8.79163 42.7092 7.49684 42.7092C7.12008 42.7092 6.73537 42.6031 6.3533 42.3948C5.90755 42.152 5.64223 41.8416 5.54273 41.4423C5.33047 40.5932 5.90623 39.4988 6.14635 39.1499C6.31881 38.9018 6.29095 38.5741 6.07869 38.3552C5.95266 38.2252 5.77489 38.1509 5.59049 38.1509C5.47508 38.1509 5.36099 38.1801 5.26149 38.2345C4.75605 38.5104 4.18693 38.6683 3.70139 38.6683C3.32993 38.6683 3.00624 38.5808 2.73826 38.4083C2.38671 38.1828 2.16914 37.8259 2.0922 37.347C1.94627 36.433 2.35885 35.3398 2.82051 34.7734L2.95715 34.6062L2.77673 34.7243C1.97811 35.2483 1.40899 35.9487 1.17418 36.6943C0.853134 37.7158 1.1556 38.4348 1.46603 38.858C1.96219 39.5346 2.82847 39.9379 3.78231 39.9379C3.97069 39.9379 4.16172 39.922 4.34878 39.8901C4.14315 40.5627 4.10866 41.1836 4.2453 41.7355C4.43235 42.4916 4.92188 43.0899 5.69795 43.5118C6.2936 43.8355 6.89987 44 7.4995 44C8.79163 44 9.74149 43.2478 10.2071 42.7822C10.6728 43.2478 11.6226 44 12.9148 44C13.5144 44 14.1207 43.8355 14.7163 43.5118C15.4937 43.0886 15.9819 42.4916 16.169 41.7355C16.3056 41.1836 16.2711 40.5627 16.0655 39.8901C16.3202 39.9366 16.681 39.9923 17.0538 39.9923C17.9015 39.9923 18.5356 39.7137 18.992 39.1419C19.4656 38.5476 19.6474 37.7782 19.5014 36.9729C19.3794 36.295 19.0292 35.6449 18.5887 35.2801C18.2571 35.0042 17.4465 34.4643 17.4385 34.459L17.278 34.3515L17.2767 34.3528Z" fill="white"/>
</svg>
