<svg width="22" height="22" viewBox="0 0 22 22" fill="none" xmlns="http://www.w3.org/2000/svg">
<g clip-path="url(#clip0_4515_1166)">
<path d="M16.0481 13.1147L16.0398 13.1835C14.0241 12.1788 13.8132 12.045 13.5529 12.4355C13.3723 12.7059 12.8462 13.3192 12.6876 13.5007C12.5272 13.6794 12.3677 13.6932 12.0954 13.5694C11.8204 13.4319 10.9377 13.1432 9.89267 12.2082C9.07867 11.4794 8.53234 10.5857 8.371 10.3107C8.10242 9.84683 8.66434 9.78083 9.17583 8.81283C9.2675 8.62033 9.22075 8.46908 9.15292 8.33249C9.08417 8.19499 8.53692 6.84749 8.30775 6.31033C8.08775 5.77499 7.86134 5.84283 7.69175 5.84283C7.16375 5.79699 6.77784 5.80433 6.43775 6.15816C4.95825 7.78433 5.33134 9.46183 6.59725 11.2457C9.08508 14.5017 10.4106 15.1012 12.8342 15.9335C13.4887 16.1416 14.0855 16.1122 14.5576 16.0444C15.0837 15.961 16.1773 15.3835 16.4056 14.7372C16.6393 14.091 16.6393 13.5547 16.5706 13.431C16.5027 13.3072 16.3231 13.2385 16.0481 13.1147Z" fill="#FFF68E"/>
<path d="M18.81 3.16149C11.7617 -3.65209 0.0971666 1.28966 0.0925833 10.9018C0.0925833 12.8231 0.595833 14.6968 1.55467 16.3514L0 21.9999L5.80708 20.4856C13.0533 24.3997 21.9963 19.2022 22 10.9073C22 7.99599 20.8633 5.25607 18.7962 3.19724L18.81 3.16149ZM20.1685 10.8771C20.163 17.874 12.4822 22.2437 6.4075 18.6724L6.0775 18.4762L2.64 19.37L3.56125 16.0287L3.34217 15.685C-0.438167 9.66707 3.905 1.80207 11.066 1.80207C13.4988 1.80207 15.7822 2.75082 17.5019 4.46957C19.2207 6.17365 20.1685 8.45707 20.1685 10.8771Z" fill="#FFF68E"/>
</g>
<defs>
<clipPath id="clip0_4515_1166">
<rect width="22" height="22" fill="white"/>
</clipPath>
</defs>
</svg>
