<svg width="51" height="32" viewBox="0 0 51 32" fill="none" xmlns="http://www.w3.org/2000/svg">
<path d="M20.4318 14.5383C19.6793 14.5277 19.1197 14.3251 18.7685 13.9353C18.3305 13.45 18.3806 12.8373 18.3806 12.8315V6.5033C18.3806 6.48207 18.4048 4.41062 20.4608 4.29291C20.5206 4.28905 20.5795 4.28809 20.6393 4.28809C22.7542 4.28809 24.4242 6.39138 24.7021 9.40257C24.8748 11.2714 24.1724 12.4726 23.553 13.1518C22.7609 14.0202 21.6128 14.5392 20.482 14.5392H20.4309L20.4318 14.5383ZM21.278 5.75074C20.262 5.75074 19.4352 7.16034 19.4352 8.89218C19.4352 10.624 20.262 12.0336 21.278 12.0336C22.2939 12.0336 23.1208 10.624 23.1208 8.89218C23.1208 7.16034 22.2939 5.75074 21.278 5.75074Z" fill="#171717"/>
<path d="M20.6394 4.29951C22.6365 4.29951 24.3992 6.24072 24.6896 9.40338C24.9868 12.6345 22.6568 14.5265 20.4821 14.5265C20.4657 14.5265 20.4483 14.5265 20.431 14.5265C18.2418 14.4966 18.3913 12.8333 18.3913 12.8333V6.50411C18.3913 6.50411 18.3913 4.42397 20.4609 4.3053C20.5207 4.30144 20.5795 4.30048 20.6384 4.30048M21.2781 12.047C22.3027 12.047 23.1334 10.6345 23.1334 8.89299C23.1334 7.1515 22.3027 5.73901 21.2781 5.73901C20.2534 5.73901 19.4227 7.1515 19.4227 8.89299C19.4227 10.6345 20.2534 12.047 21.2781 12.047ZM20.6394 4.27539C20.5795 4.27539 20.5197 4.27732 20.4599 4.28021C18.3913 4.39889 18.3682 6.48192 18.3682 6.50315V12.8323C18.3682 12.8323 18.318 13.4537 18.7589 13.9428C19.113 14.3355 19.6755 14.5391 20.431 14.5497C20.4483 14.5497 20.4647 14.5497 20.4821 14.5497C21.6157 14.5497 22.7677 14.0297 23.5618 13.1584C24.1822 12.4782 24.8855 11.2742 24.7138 9.40049C24.4359 6.38255 22.76 4.27539 20.6394 4.27539ZM21.2781 12.0229C20.2689 12.0229 19.4468 10.619 19.4468 8.89299C19.4468 7.16694 20.2679 5.76314 21.2781 5.76314C22.2882 5.76314 23.1093 7.16694 23.1093 8.89299C23.1093 10.619 22.2882 12.0229 21.2781 12.0229Z" fill="#171717"/>
<path d="M25.8207 7.92529C24.4574 7.92529 23.3527 9.39663 23.3527 11.2124C23.3527 13.0282 24.4574 14.4995 25.8207 14.4995C27.1839 14.4995 28.2887 13.0282 28.2887 11.2124C28.2887 9.39663 27.1839 7.92529 25.8207 7.92529ZM26.1275 13.1218C25.3479 13.1218 24.7159 12.1203 24.7159 10.8844C24.7159 9.64845 25.3479 8.64697 26.1275 8.64697C26.907 8.64697 27.539 9.64845 27.539 10.8844C27.539 12.1203 26.907 13.1218 26.1275 13.1218Z" fill="#171717" stroke="#171717" stroke-width="0.0241204" stroke-miterlimit="10"/>
<path d="M35.1532 13.2229C35.1059 12.725 34.9313 12.2388 34.6476 11.821C34.3003 11.3087 33.786 10.8919 33.5352 10.3207C33.2361 9.64245 33.7812 9.47746 34.1826 9.02979C34.5154 8.6593 34.7557 8.2097 34.8685 7.73115C35.0432 6.98921 34.9091 6.18359 34.5038 5.53137C34.4132 5.38472 34.309 5.24579 34.1874 5.12229C33.5757 4.49999 32.5491 4.29834 31.6962 4.29834C31.0961 4.29834 29.2948 4.29255 29.2948 6.09579C29.2948 8.32644 29.2958 10.5561 29.2967 12.7868C29.2967 13.2065 29.2543 13.6705 29.4453 14.0565C29.6151 14.399 30.1024 14.6595 30.4545 14.3787C30.5597 14.2948 30.6263 14.1732 30.6745 14.0488C30.8183 13.6783 30.8163 13.2711 30.8125 12.8755C30.8096 12.5764 30.8076 12.2774 30.8047 11.9773C30.8009 11.5325 30.8462 10.7028 31.483 10.7028C32.0185 10.7028 32.4237 11.2527 32.6302 11.657C32.883 12.1529 33.1126 12.6594 33.3171 13.1766C33.429 13.4593 33.5361 13.7497 33.7243 13.9918C33.9124 14.234 34.1999 14.425 34.5125 14.4221C35.1647 14.4154 35.1975 13.6879 35.1532 13.2229ZM32.0252 8.90822C31.2302 8.90822 30.5857 8.1055 30.5857 7.11656C30.5857 6.12763 31.2302 5.3249 32.0252 5.3249C32.8202 5.3249 33.4647 6.12763 33.4647 7.11656C33.4647 8.1055 32.8202 8.90822 32.0252 8.90822Z" fill="#171717" stroke="#171717" stroke-width="0.0241204" stroke-miterlimit="10"/>
<path d="M36.994 7.92529C35.6307 7.92529 34.526 9.39663 34.526 11.2124C34.526 13.0282 35.6307 14.4995 36.994 14.4995C37.5343 14.4995 38.036 14.2583 38.4239 13.8917C38.6371 13.6901 38.8358 13.445 38.9699 13.1826C39.0896 12.9472 39.5044 12.1898 39.0876 12.0229C38.9641 11.9737 38.8185 12.0171 38.7133 12.0991C38.6081 12.1811 38.5329 12.294 38.4576 12.404C38.2926 12.6432 38.1113 12.8758 37.8749 13.0446C37.6385 13.2134 37.3404 13.3119 37.0548 13.2569C36.7055 13.1884 36.2887 12.8179 36.2771 12.4397C36.2636 12.0132 36.7624 11.8222 37.1271 11.7614C37.4668 11.7054 37.8151 11.7305 38.1585 11.7054C38.3399 11.6919 38.5213 11.6649 38.6988 11.6244C39.9994 11.3234 39.3414 9.77002 38.8281 9.0136C38.4123 8.39998 37.7572 7.92529 36.993 7.92529H36.994ZM37.0866 10.9442C36.3659 10.9442 35.7822 10.43 35.7822 9.79607C35.7822 9.16218 36.3659 8.64794 37.0866 8.64794C37.8073 8.64794 38.391 9.16218 38.391 9.79607C38.391 10.43 37.8073 10.9442 37.0866 10.9442Z" fill="#171717" stroke="#171717" stroke-width="0.0241204" stroke-miterlimit="10"/>
<path d="M47.9725 30.7063C47.0105 30.7063 46.0467 30.4024 45.2729 29.8264C45.024 29.6411 44.9671 29.2822 45.1475 29.0256C45.3279 28.7689 45.6762 28.711 45.9251 28.8963C46.6468 29.4327 47.5624 29.8225 48.4771 29.6845C48.9749 29.6093 49.438 29.2542 49.4419 28.711C49.4438 28.521 49.3811 28.3232 49.2431 28.1929C48.9006 27.8716 48.2841 28.0222 47.8798 28.109C47.081 28.2807 46.1094 28.7361 45.4871 27.9816C45.023 27.4201 45.0877 26.5257 45.6338 25.9449C45.9994 25.5561 46.5349 25.3178 47.2267 25.2377C48.2494 25.1181 49.302 25.34 50.1906 25.8629C50.4347 26.0067 50.5871 26.41 50.3961 26.6531C50.3054 26.7689 50.1481 26.8268 50.0034 26.7988C49.8625 26.7708 49.7487 26.6724 49.6358 26.5846C49.0772 26.1523 48.3594 25.9304 47.6541 25.971C47.327 25.9893 46.9864 26.0723 46.7529 26.3019C46.5098 26.5402 46.3902 27.095 46.7587 27.2773C47.0462 27.4192 47.2817 27.3188 47.575 27.2725C48.0921 27.1905 48.6189 27.1722 49.1399 27.2204C49.9214 27.2918 50.452 27.5783 50.7174 28.0723C50.9923 28.5846 50.9065 29.26 50.5032 29.754C50.2292 30.0888 49.8375 30.3348 49.3039 30.5037C48.8736 30.6397 48.424 30.7063 47.9734 30.7063H47.9725Z" fill="#171717" stroke="#171717" stroke-width="0.0241204" stroke-miterlimit="10"/>
<path d="M43.3022 25.2935C41.7652 25.2935 40.5197 26.5004 40.5197 27.9901C40.5197 29.4798 41.7652 30.6868 43.3022 30.6868C43.911 30.6868 44.4773 30.489 44.9144 30.188C45.1546 30.023 45.3794 29.8213 45.5299 29.6062C45.665 29.4132 46.132 28.7919 45.6631 28.6549C45.5232 28.6143 45.3601 28.65 45.2415 28.7176C45.1228 28.7851 45.0379 28.8777 44.953 28.9675C44.7677 29.1633 44.5622 29.3544 44.2959 29.4933C44.0296 29.6313 43.6929 29.7133 43.3716 29.667C42.977 29.611 42.5081 29.3071 42.4946 28.9964C42.4792 28.6462 43.0417 28.4899 43.4527 28.4407C43.8357 28.3944 44.2284 28.4156 44.6153 28.3953C44.8198 28.3847 45.0244 28.3625 45.2241 28.3288C46.6896 28.0818 45.9487 26.8072 45.3707 26.1869C44.9018 25.6842 44.1638 25.2944 43.3022 25.2944V25.2935ZM43.4073 27.7701C42.595 27.7701 41.937 27.3485 41.937 26.8285C41.937 26.3084 42.595 25.8868 43.4073 25.8868C44.2197 25.8868 44.8777 26.3084 44.8777 26.8285C44.8777 27.3485 44.2197 27.7701 43.4073 27.7701Z" fill="#171717" stroke="#171717" stroke-width="0.0241204" stroke-miterlimit="10"/>
<path d="M47.8752 14.4636C47.524 14.4636 47.2124 14.2185 47.1458 13.8673C46.8072 12.0747 46.8872 10.203 46.4367 8.42771C46.2794 7.80733 45.8028 7.85365 45.661 8.45183C45.4738 9.23912 45.2731 10.0245 45.056 10.804C44.919 11.298 44.9759 11.9927 44.2745 11.9821C43.5789 11.9715 43.5856 11.3646 43.4882 10.8513C43.355 10.148 43.2103 9.44752 43.0531 8.74899C42.999 8.51068 42.9431 8.26948 42.8369 8.04854C42.809 7.99065 42.7713 7.9289 42.7077 7.91443C42.5861 7.88645 42.5147 8.04371 42.4944 8.16432C42.177 10.064 42.0796 11.9628 41.7448 13.8587C41.6743 14.2552 41.2903 14.5205 40.8861 14.452C40.4818 14.3835 40.2117 14.0063 40.2812 13.6097L41.82 4.90131C41.8798 4.56556 42.1693 4.31471 42.5166 4.2983C43.0183 4.27515 43.2846 4.68519 43.3743 5.11936C43.5075 5.76675 43.5953 6.44695 43.7246 7.10205C43.8317 7.64428 43.9407 8.19037 44.1529 8.70172C44.1858 8.77987 44.2321 8.8667 44.317 8.8831C44.4308 8.90529 44.5177 8.78566 44.5649 8.68146C44.9402 7.86426 45.0136 6.96119 45.167 6.089C45.2731 5.48213 45.3918 4.2491 46.2727 4.2983C46.6142 4.3176 46.8979 4.56266 46.9606 4.89263L48.6056 13.601C48.6799 13.9966 48.4136 14.3768 48.0103 14.4501C47.9649 14.4588 47.9186 14.4626 47.8742 14.4626L47.8752 14.4636Z" fill="#171717" stroke="#171717" stroke-width="0.0241204" stroke-miterlimit="10"/>
<path d="M25.809 22.4409C25.4579 22.4409 25.1462 22.2691 25.0796 22.0241C24.741 20.7688 24.8211 19.4577 24.3705 18.215C24.2132 17.7798 23.7366 17.8136 23.5948 18.2314C23.4076 18.7832 23.2069 19.3322 22.9899 19.8783C22.8529 20.2247 22.9098 20.71 22.2084 20.7032C21.5127 20.6955 21.5195 20.271 21.422 19.9111C21.2889 19.4191 21.1442 18.928 20.9869 18.4388C20.9329 18.2719 20.8769 18.1031 20.7708 17.9487C20.7428 17.9082 20.7052 17.8647 20.6415 17.8551C20.5199 17.8358 20.4485 17.9458 20.4283 18.0307C20.1108 19.3602 20.0134 20.6907 19.6786 22.0183C19.6082 22.2961 19.2242 22.4814 18.8199 22.4331C18.4157 22.3849 18.1455 22.1215 18.215 21.8436L19.7539 15.746C19.8137 15.5106 20.1031 15.335 20.4505 15.3234C20.9522 15.307 21.2185 15.5945 21.3082 15.8985C21.4413 16.3519 21.5291 16.8276 21.6584 17.2868C21.7655 17.666 21.8745 18.049 22.0868 18.407C22.1196 18.462 22.1659 18.5227 22.2508 18.5343C22.3647 18.5498 22.4515 18.4658 22.4988 18.3935C22.8741 17.8213 22.9474 17.1894 23.1008 16.5777C23.2069 16.1532 23.3256 15.2897 24.2065 15.3244C24.548 15.3379 24.8317 15.5096 24.8944 15.7402L26.5394 21.8379C26.6137 22.1148 26.3474 22.381 25.9441 22.4322C25.8988 22.438 25.8525 22.4409 25.8081 22.4409H25.809Z" fill="#171717" stroke="#171717" stroke-width="0.0241204" stroke-miterlimit="10"/>
<path d="M49.1583 9.96387H49.2268C49.6938 9.96387 50.0729 10.343 50.0729 10.81V13.6292C50.0729 14.0962 49.6938 14.4753 49.2268 14.4753H49.1583C48.6913 14.4753 48.3121 14.0962 48.3121 13.6292V10.81C48.3121 10.343 48.6913 9.96387 49.1583 9.96387Z" fill="#171717"/>
<path d="M49.227 9.97627C49.6882 9.97627 50.0616 10.3497 50.0616 10.8108V13.63C50.0616 14.0912 49.6882 14.4646 49.227 14.4646H49.1585C48.6973 14.4646 48.3239 14.0912 48.3239 13.63V10.8108C48.3239 10.3497 48.6973 9.97627 49.1585 9.97627H49.227ZM49.227 9.95215H49.1585C48.6848 9.95215 48.2998 10.3371 48.2998 10.8108V13.63C48.2998 14.1037 48.6848 14.4887 49.1585 14.4887H49.227C49.7007 14.4887 50.0857 14.1037 50.0857 13.63V10.8108C50.0857 10.3371 49.7007 9.95215 49.227 9.95215Z" fill="#171717"/>
<path d="M49.1933 9.82686C48.5681 9.82686 48.0587 9.3184 48.0587 8.69224C48.0587 8.06608 48.5672 7.55762 49.1933 7.55762C49.8195 7.55762 50.328 8.06608 50.328 8.69224C50.328 9.3184 49.8195 9.82686 49.1933 9.82686Z" fill="#171717"/>
<path d="M49.1932 7.57002C49.8126 7.57002 50.3153 8.07269 50.3153 8.6921C50.3153 9.31151 49.8126 9.81418 49.1932 9.81418C48.5738 9.81418 48.0711 9.31151 48.0711 8.6921C48.0711 8.07269 48.5738 7.57002 49.1932 7.57002ZM49.1932 7.5459C48.5612 7.5459 48.047 8.06015 48.047 8.6921C48.047 9.32405 48.5612 9.8383 49.1932 9.8383C49.8252 9.8383 50.3394 9.32405 50.3394 8.6921C50.3394 8.06015 49.8252 7.5459 49.1932 7.5459Z" fill="#171717"/>
<path d="M49.1932 9.9589C48.4947 9.9589 47.9264 9.39062 47.9264 8.69209C47.9264 7.99357 48.4947 7.42529 49.1932 7.42529C49.8917 7.42529 50.46 7.99357 50.46 8.69209C50.46 9.39062 49.8917 9.9589 49.1932 9.9589ZM49.1932 7.71474C48.6539 7.71474 48.2158 8.15276 48.2158 8.69209C48.2158 9.23143 48.6539 9.66945 49.1932 9.66945C49.7325 9.66945 50.1706 9.23143 50.1706 8.69209C50.1706 8.15276 49.7325 7.71474 49.1932 7.71474Z" fill="#171717" stroke="#171717" stroke-width="0.0241204" stroke-miterlimit="10"/>
<path d="M42.6971 17.9409H42.6286C42.1677 17.9409 41.7941 18.3146 41.7941 18.7755V21.5947C41.7941 22.0556 42.1677 22.4292 42.6286 22.4292H42.6971C43.1581 22.4292 43.5317 22.0556 43.5317 21.5947V18.7755C43.5317 18.3146 43.1581 17.9409 42.6971 17.9409Z" fill="#171717" stroke="#171717" stroke-width="0.0241204" stroke-miterlimit="10"/>
<path d="M42.6631 17.7788C43.2828 17.7788 43.7852 17.2765 43.7852 16.6567C43.7852 16.037 43.2828 15.5347 42.6631 15.5347C42.0434 15.5347 41.541 16.037 41.541 16.6567C41.541 17.2765 42.0434 17.7788 42.6631 17.7788Z" fill="#171717" stroke="#171717" stroke-width="0.0241204" stroke-miterlimit="10"/>
<path d="M32.9495 22.4526C32.6639 22.4526 32.4719 22.2625 32.3783 21.8872C32.3629 21.8264 32.3571 21.7367 32.3494 21.6335C32.333 21.3961 32.3127 21.0999 32.1661 21.0565C32.14 21.0488 32.112 21.0449 32.0831 21.0449C32.0011 21.0449 31.9162 21.0748 31.8438 21.1028C31.564 21.2109 31.2958 21.3469 31.0363 21.4791C30.7594 21.619 30.4738 21.7647 30.1737 21.8756L29.1713 22.2471C29.0478 22.2924 28.9195 22.3156 28.7902 22.3156C28.494 22.3156 28.2113 22.195 27.9942 21.9769C27.6778 21.6585 27.5523 21.1819 27.6662 20.7333C27.7501 20.4004 27.835 20.0676 27.919 19.7347L28.0434 19.2426C28.1766 18.7168 28.3242 18.1534 28.5027 17.5947C28.5625 17.4056 28.631 17.1924 28.7719 17.0313C28.8944 16.8914 29.1192 16.7939 29.3189 16.7939C29.3565 16.7939 29.3932 16.7978 29.426 16.8046C29.6219 16.8451 29.7868 17.0216 29.8467 17.2532C29.9007 17.4606 29.8717 17.6806 29.8322 17.888C29.7454 18.3444 29.6151 18.7969 29.4877 19.234C29.3652 19.6565 29.2388 20.0946 29.153 20.5336C29.1366 20.6194 29.125 20.7014 29.1645 20.7661C29.2002 20.822 29.2649 20.851 29.3575 20.851C29.4038 20.851 29.4569 20.8442 29.5157 20.8298C30.1921 20.6686 30.8269 20.3908 31.4039 20.002C31.5254 19.9199 31.6624 19.8215 31.7531 19.6855C31.9992 19.316 31.8766 18.8143 31.7792 18.411L31.7734 18.3859C31.7637 18.3454 31.7522 18.3019 31.7406 18.2556C31.6354 17.8437 31.4753 17.2214 31.8342 16.9145C31.922 16.8393 32.0397 16.7988 32.1651 16.7988C32.2799 16.7988 32.3938 16.8335 32.4854 16.8952C32.7662 17.0872 32.798 17.4655 32.826 17.7993C32.8357 17.9083 32.8443 18.0115 32.8607 18.1051L33.5072 21.727C33.566 22.058 33.3634 22.3783 33.0556 22.442C33.0199 22.4497 32.9833 22.4535 32.9476 22.4535L32.9495 22.4526Z" fill="#171717"/>
<path d="M29.3198 16.8063C29.3565 16.8063 29.3912 16.8092 29.425 16.8169C29.6324 16.8603 29.7839 17.0523 29.837 17.2569C29.89 17.4614 29.8621 17.6785 29.8225 17.8869C29.6517 18.7842 29.3179 19.638 29.1433 20.5324C29.1278 20.6135 29.1134 20.7042 29.1568 20.7736C29.1992 20.8421 29.2774 20.8634 29.3604 20.8634C29.4144 20.8634 29.4703 20.8537 29.5205 20.8421C30.194 20.682 30.8384 20.3993 31.4125 20.0134C31.5447 19.9246 31.6769 19.8271 31.7647 19.694C32.0184 19.3119 31.8853 18.7929 31.7859 18.3847C31.6856 17.9699 31.4511 17.2607 31.8438 16.925C31.9335 16.8488 32.0493 16.8121 32.167 16.8121C32.2779 16.8121 32.3889 16.8449 32.4806 16.9067C32.8453 17.1565 32.7825 17.7248 32.851 18.1078C32.9263 18.5304 33.0016 18.953 33.0778 19.3756C33.2071 20.1021 33.3373 20.8286 33.4666 21.5551C33.4772 21.613 33.4878 21.6719 33.4975 21.7298C33.5554 22.0549 33.3576 22.3685 33.0556 22.4312C33.0199 22.4389 32.9852 22.4418 32.9495 22.4418C32.6156 22.4418 32.4622 22.1755 32.3899 21.8861C32.3387 21.6815 32.3879 21.1113 32.1699 21.0467C32.1419 21.038 32.112 21.0341 32.0831 21.0341C32.001 21.0341 31.9171 21.0631 31.839 21.093C31.261 21.3159 30.7506 21.6497 30.1689 21.8658C29.835 21.9893 29.5012 22.1138 29.1664 22.2373C29.0429 22.2836 28.9156 22.3058 28.7892 22.3058C28.5017 22.3058 28.219 22.19 28.0019 21.97C27.6893 21.6545 27.5639 21.1827 27.6767 20.7379C27.8022 20.2411 27.9286 19.7442 28.055 19.2473C28.1958 18.6916 28.3396 18.1464 28.5142 17.6004C28.5779 17.4016 28.6445 17.198 28.7815 17.0408C28.9021 16.9028 29.1249 16.8073 29.3198 16.8073M29.3198 16.7822C29.1172 16.7822 28.8876 16.8816 28.7631 17.0234C28.6203 17.1864 28.5518 17.4016 28.4911 17.5917C28.3126 18.1503 28.1649 18.7138 28.0318 19.2405L27.9054 19.7365C27.8215 20.0684 27.7366 20.3993 27.6536 20.7312C27.5388 21.1846 27.6661 21.6651 27.9845 21.9864C28.2035 22.2073 28.4901 22.3289 28.7892 22.3289C28.9204 22.3289 29.0506 22.3058 29.1751 22.2594L29.6758 22.0732L30.1766 21.887C30.4776 21.7751 30.7632 21.6304 31.0401 21.4895C31.2996 21.3583 31.5678 21.2213 31.8467 21.1142C31.9181 21.0862 32.002 21.0573 32.0821 21.0573C32.111 21.0573 32.1371 21.0611 32.1622 21.0679C32.3011 21.1094 32.3204 21.3998 32.3368 21.6342C32.3445 21.7384 32.3503 21.8282 32.3657 21.8909C32.4613 22.272 32.6571 22.4649 32.9485 22.4649C32.9852 22.4649 33.0228 22.4611 33.0594 22.4534C33.374 22.3887 33.5804 22.0617 33.5206 21.724L33.5052 21.6362L33.4898 21.5484L33.4502 21.3284L33.1 19.3698L33.0691 19.1942L32.8742 18.1021C32.8578 18.0094 32.8491 17.9072 32.8395 17.7981C32.8105 17.4614 32.7787 17.0803 32.4931 16.8854C32.3995 16.8217 32.2837 16.7861 32.166 16.7861C32.0367 16.7861 31.9161 16.8285 31.8264 16.9047C31.4617 17.2164 31.6219 17.8435 31.729 18.2584C31.7405 18.3037 31.7521 18.3481 31.7618 18.3886L31.7676 18.4137C31.865 18.8151 31.9856 19.3139 31.7434 19.6786C31.6547 19.8127 31.5186 19.9101 31.398 19.9912C30.823 20.3781 30.1891 20.6559 29.5138 20.817C29.4559 20.8306 29.4038 20.8373 29.3584 20.8373C29.2697 20.8373 29.2079 20.8103 29.1751 20.7582C29.1365 20.6974 29.1481 20.6173 29.1645 20.5344C29.2504 20.0954 29.3768 19.6583 29.4993 19.2357C29.6257 18.7987 29.7569 18.3462 29.8437 17.8888C29.8833 17.6804 29.9122 17.4585 29.8582 17.2482C29.7974 17.0118 29.6286 16.8324 29.4279 16.7899C29.3932 16.7832 29.3565 16.7793 29.3179 16.7793L29.3198 16.7822Z" fill="#171717"/>
<path d="M37.4871 22.3357C36.5252 22.3357 35.5613 22.0318 34.7876 21.4558C34.5386 21.2705 34.4817 20.9116 34.6621 20.655C34.8426 20.3983 35.1909 20.3404 35.4398 20.5257C36.1615 21.0621 37.0771 21.4519 37.9917 21.3139C38.4896 21.2387 38.9527 20.8836 38.9565 20.3404C38.9585 20.1504 38.8957 19.9526 38.7578 19.8223C38.4153 19.501 37.7988 19.6516 37.3945 19.7384C36.5956 19.9101 35.6241 20.3655 35.0018 19.611C34.5377 19.0495 34.6023 18.1551 35.1484 17.5743C35.5141 17.1855 36.0495 16.9472 36.7413 16.8671C37.764 16.7475 38.8166 16.9694 39.7052 17.4923C39.9493 17.6361 40.1018 18.0393 39.9107 18.2825C39.82 18.3983 39.6628 18.4562 39.5181 18.4282C39.3772 18.4002 39.2633 18.3018 39.1505 18.214C38.5918 17.7817 37.874 17.5598 37.1687 17.6004C36.8417 17.6187 36.5011 17.7017 36.2676 17.9313C36.0245 18.1696 35.9048 18.7244 36.2734 18.9067C36.5609 19.0485 36.7963 18.9482 37.0896 18.9019C37.6068 18.8199 38.1335 18.8016 38.6545 18.8498C39.436 18.9212 39.9667 19.2077 40.232 19.7017C40.507 20.214 40.4211 20.8894 40.0178 21.3834C39.7438 21.7182 39.3521 21.9642 38.8186 22.1331C38.3883 22.2691 37.9386 22.3357 37.4881 22.3357H37.4871Z" fill="#171717" stroke="#171717" stroke-width="0.0241204" stroke-miterlimit="10"/>
<path d="M34.8965 30.898C34.8049 30.898 34.7123 30.8681 34.638 30.8131C34.391 30.6327 34.3504 30.2564 34.3138 29.9245C34.3022 29.8155 34.2906 29.7132 34.2733 29.6206L33.5921 26.0286C33.5304 25.7005 33.6924 25.3725 33.9539 25.2963C33.9848 25.2876 34.0157 25.2818 34.0465 25.2808C34.0552 25.2808 34.0629 25.2808 34.0706 25.2808C34.4874 25.2808 34.5646 25.798 34.6273 26.2138C34.6418 26.3084 34.6553 26.3981 34.6717 26.4743C34.6804 26.5168 34.691 26.5563 34.7161 26.5795C34.7344 26.5959 34.7586 26.6036 34.7943 26.6036H34.8116C35.0229 26.593 35.184 26.4801 35.3548 26.3595C35.4252 26.3103 35.4986 26.2592 35.5748 26.2157L35.6655 26.1646C35.9173 26.0218 36.1778 25.8732 36.4402 25.7449L37.2844 25.332C37.3886 25.2808 37.4977 25.2529 37.6096 25.2471C37.6221 25.2471 37.6347 25.2471 37.6472 25.2471C37.8884 25.2471 38.1209 25.3561 38.3043 25.5548C38.4355 25.6967 38.5358 25.879 38.5937 26.0836C38.7944 25.9707 39.0086 25.851 39.2237 25.7459L40.0679 25.3329C40.1721 25.2818 40.2812 25.2538 40.3931 25.248C40.4056 25.248 40.4182 25.248 40.4307 25.248C40.6709 25.248 40.9044 25.3571 41.0877 25.5558C41.3695 25.8607 41.4939 26.3315 41.4119 26.784C41.354 27.1063 41.2961 27.4285 41.2383 27.7508L41.1408 28.2891C41.0453 28.8198 40.9392 29.3881 40.806 29.9544C40.7607 30.1454 40.7105 30.3616 40.5957 30.5285C40.4915 30.6799 40.2879 30.7899 40.1133 30.7899C40.0882 30.7899 40.0641 30.788 40.0409 30.7832C39.8711 30.7504 39.7235 30.5806 39.6637 30.3509C39.6106 30.1464 39.628 29.9245 39.654 29.7171C39.7042 29.3215 39.7881 28.9278 39.8702 28.5467C39.8904 28.4503 39.9116 28.3528 39.9319 28.2554C39.9454 28.1926 39.9599 28.1261 39.9753 28.0576C40.0573 27.6909 40.1499 27.2761 40.0872 26.9365C40.0708 26.8458 40.04 26.7782 39.9975 26.7367C39.957 26.6972 39.9078 26.6789 39.8451 26.6789C39.7824 26.6789 39.7081 26.6982 39.6183 26.7387C39.2218 26.9152 38.8465 27.1593 38.504 27.4652L38.3583 28.2901C38.2628 28.8207 38.1557 29.39 38.0235 29.9554C37.9781 30.1464 37.928 30.3625 37.8132 30.5294C37.709 30.6809 37.5054 30.7909 37.3308 30.7909C37.3057 30.7909 37.2816 30.789 37.2584 30.7841C37.0886 30.7513 36.941 30.5815 36.8812 30.3519C36.8281 30.1474 36.8455 29.9255 36.8715 29.718C36.9217 29.3224 37.0056 28.9298 37.0867 28.5487C37.1079 28.4512 37.1281 28.3538 37.1484 28.2563C37.1619 28.1936 37.1764 28.127 37.1918 28.0585C37.2738 27.6919 37.3665 27.277 37.3037 26.9374C37.2873 26.8467 37.2565 26.7792 37.214 26.7377C37.1735 26.6982 37.1243 26.6798 37.0616 26.6798C36.9989 26.6798 36.9246 26.6991 36.8348 26.7396C36.3389 26.9606 35.8855 27.279 35.487 27.6871C35.3355 27.8424 35.1705 28.0344 35.104 28.2795C35.021 28.5805 35.1281 28.9722 35.2313 29.3524C35.3741 29.8782 35.5217 30.4214 35.1976 30.7735C35.1194 30.8584 35.0123 30.9047 34.8956 30.9047L34.8965 30.898Z" fill="#171717"/>
<path d="M40.4354 25.257C40.6689 25.257 40.8995 25.3612 41.0837 25.5609C41.3626 25.8629 41.4861 26.3299 41.405 26.7785C41.3153 27.2802 41.2246 27.7819 41.1339 28.2836C41.0326 28.8442 40.9284 29.3951 40.7991 29.9479C40.7519 30.1486 40.7017 30.356 40.5907 30.5181C40.4885 30.6667 40.2897 30.7738 40.118 30.7738C40.0939 30.7738 40.0707 30.7719 40.0485 30.767C39.87 30.7323 39.733 30.5471 39.6809 30.3444C39.6288 30.1418 39.6452 29.9238 39.6713 29.7144C39.734 29.2204 39.8478 28.739 39.9482 28.2547C40.0311 27.8581 40.1778 27.3381 40.1035 26.9309C40.089 26.8538 40.062 26.7756 40.0099 26.7245C39.9636 26.6791 39.9076 26.6627 39.8488 26.6627C39.7716 26.6627 39.6896 26.6907 39.6172 26.7235C39.2168 26.901 38.8396 27.148 38.5 27.4519C38.4498 27.7288 38.4006 28.0067 38.3504 28.2836C38.2491 28.8442 38.1449 29.3951 38.0156 29.9479C37.9684 30.1486 37.9182 30.356 37.8072 30.5181C37.705 30.6667 37.5062 30.7738 37.3345 30.7738C37.3104 30.7738 37.2872 30.7719 37.265 30.767C37.0865 30.7323 36.9495 30.5471 36.8974 30.3444C36.8453 30.1418 36.8617 29.9238 36.8878 29.7144C36.9505 29.2204 37.0643 28.739 37.1647 28.2547C37.2476 27.8581 37.3943 27.3381 37.32 26.9309C37.3055 26.8538 37.2785 26.7756 37.2264 26.7245C37.1801 26.6791 37.1242 26.6627 37.0653 26.6627C36.9881 26.6627 36.9061 26.6907 36.8337 26.7235C36.3398 26.9435 35.8795 27.2667 35.482 27.6738C35.319 27.8408 35.1617 28.0308 35.0961 28.2711C34.8993 28.9879 35.7483 30.1563 35.1926 30.7593C35.1135 30.8452 35.0073 30.8867 34.8993 30.8867C34.8115 30.8867 34.7227 30.8587 34.6475 30.8047C34.3262 30.5702 34.36 29.999 34.2886 29.6199C34.2094 29.2011 34.1294 28.7815 34.0503 28.3627C33.9132 27.642 33.7772 26.9223 33.6402 26.2015C33.6296 26.1436 33.618 26.0858 33.6074 26.0279C33.5466 25.7056 33.7048 25.3843 33.9605 25.3091C33.9904 25.3004 34.0203 25.2956 34.0503 25.2936C34.058 25.2936 34.0667 25.2936 34.0744 25.2936C34.5741 25.2936 34.5751 26.0684 34.6639 26.4775C34.6726 26.518 34.6832 26.5624 34.7121 26.5884C34.7362 26.6106 34.7681 26.6154 34.7989 26.6154C34.8047 26.6154 34.8115 26.6154 34.8173 26.6154C35.1222 26.601 35.3267 26.3733 35.5862 26.2266C35.8718 26.0645 36.1574 25.8995 36.4507 25.7558C36.7324 25.6178 37.0142 25.4808 37.2949 25.3429C37.3991 25.2917 37.5072 25.2647 37.6152 25.2589C37.6278 25.2589 37.6403 25.2589 37.6529 25.2589C37.8864 25.2589 38.1169 25.3631 38.3012 25.5628C38.4373 25.7104 38.5357 25.8967 38.5926 26.1012C38.8049 25.9816 39.0181 25.8629 39.2352 25.7568C39.5169 25.6188 39.7986 25.4818 40.0794 25.3438C40.1836 25.2927 40.2916 25.2657 40.3997 25.2599C40.4122 25.2599 40.4248 25.2599 40.4373 25.2599M40.4354 25.2329C40.4229 25.2329 40.4093 25.2329 40.3968 25.2329C40.2839 25.2387 40.173 25.2676 40.0668 25.3187L39.678 25.5088L39.2217 25.7317C39.0229 25.8291 38.8299 25.9343 38.6042 26.0616C38.5444 25.8619 38.445 25.6834 38.3157 25.5426C38.1305 25.3419 37.8941 25.2309 37.65 25.2309C37.6374 25.2309 37.6239 25.2309 37.6114 25.2309C37.4985 25.2367 37.3875 25.2657 37.2814 25.3168L36.8839 25.5107L36.4362 25.7288C36.1728 25.8571 35.9133 26.0057 35.6615 26.1485L35.5708 26.1996C35.4936 26.244 35.4203 26.2951 35.3499 26.3443C35.18 26.463 35.0209 26.5749 34.8125 26.5855C34.8067 26.5855 34.8009 26.5855 34.7961 26.5855C34.7633 26.5855 34.7411 26.5788 34.7256 26.5643C34.7034 26.5431 34.6938 26.5055 34.6851 26.4659C34.6687 26.3897 34.6552 26.3009 34.6407 26.2064C34.577 25.7867 34.4989 25.2637 34.0715 25.2637C34.0628 25.2637 34.0551 25.2637 34.0464 25.2637C34.0146 25.2657 33.9817 25.2705 33.9509 25.2801C33.6836 25.3583 33.5177 25.6931 33.5804 26.0269L33.5968 26.1118L33.6132 26.2006L33.9123 27.7809L34.0223 28.3618L34.1419 28.9908L34.2615 29.6199C34.2789 29.7115 34.2905 29.8138 34.3021 29.9228C34.3387 30.2576 34.3793 30.6368 34.6311 30.8201C34.7083 30.8761 34.8028 30.9069 34.8974 30.9069C35.018 30.9069 35.1279 30.8587 35.208 30.7719C35.537 30.4149 35.3884 29.8678 35.2447 29.3401C35.1415 28.9619 35.0353 28.5721 35.1173 28.274C35.1839 28.0318 35.347 27.8417 35.4975 27.6874C35.895 27.2802 36.3475 26.9618 36.8424 26.7418C36.9312 26.7023 37.0035 26.683 37.0643 26.683C37.1251 26.683 37.1705 26.7013 37.2091 26.738C37.2505 26.7785 37.2795 26.8431 37.2959 26.9319C37.3586 27.2686 37.266 27.6825 37.184 28.0482C37.1685 28.1167 37.1541 28.1833 37.1406 28.246C37.1203 28.3434 37.0991 28.4409 37.0788 28.5383C36.9978 28.9194 36.9129 29.3131 36.8637 29.7086C36.8376 29.918 36.8202 30.1409 36.8733 30.3473C36.9341 30.5808 37.0856 30.7545 37.2602 30.7883C37.2833 30.7931 37.3084 30.795 37.3345 30.795C37.5139 30.795 37.7204 30.6831 37.8275 30.5287C37.9442 30.3599 37.9944 30.1428 38.0398 29.9508C38.1729 29.3854 38.279 28.8162 38.3746 28.2846L38.4247 28.0057L38.5231 27.4606C38.8637 27.1586 39.2352 26.9165 39.6278 26.7418C39.7166 26.7023 39.789 26.683 39.8498 26.683C39.9105 26.683 39.9559 26.7013 39.9945 26.738C40.036 26.7785 40.0649 26.8431 40.0813 26.9319C40.144 27.2686 40.0514 27.6825 39.9694 28.0482C39.954 28.1167 39.9395 28.1833 39.926 28.246C39.9057 28.3434 39.8845 28.4409 39.8642 28.5383C39.7832 28.9194 39.6983 29.3131 39.6481 29.7086C39.6221 29.918 39.6047 30.1409 39.6578 30.3473C39.7185 30.5808 39.87 30.7545 40.0446 30.7883C40.0678 30.7931 40.0929 30.795 40.1189 30.795C40.2984 30.795 40.5049 30.6831 40.612 30.5287C40.7287 30.3599 40.7789 30.1428 40.8242 29.9508C40.9574 29.3854 41.0635 28.8162 41.159 28.2846L41.2497 27.7809C41.3095 27.4471 41.3703 27.1133 41.4301 26.7795C41.5121 26.3231 41.3867 25.8484 41.103 25.5406C40.9178 25.34 40.6814 25.229 40.4373 25.229L40.4354 25.2329Z" fill="#171717"/>
<path d="M50.7021 20.0092C50.6799 19.9716 50.6451 19.9407 50.6085 19.9166C50.4531 19.8153 50.2332 19.8279 50.0894 19.9446C50.0306 19.9928 49.9852 20.0556 49.9408 20.1173C49.7334 20.4048 49.5578 20.6402 49.2384 20.8091C48.9577 20.9577 48.6412 21.0329 48.3238 21.0329C47.3098 21.0329 46.4868 20.2784 46.4868 19.3474C46.4868 18.4163 47.3088 17.6618 48.3238 17.6618C48.9297 17.6618 49.6504 17.9995 49.937 18.5562C50.0016 18.6817 50.0576 18.8148 50.1579 18.9142C50.2582 19.0136 50.4194 19.0676 50.5419 18.9991C50.6365 18.946 50.6847 18.8322 50.6857 18.7241C50.6866 18.6161 50.648 18.5109 50.6046 18.4125C50.4078 17.9648 50.046 17.602 49.6456 17.329C49.1342 16.9797 48.5177 16.7983 47.8993 16.7983C46.2707 16.7983 44.9508 18.0208 44.9508 19.5288C44.9508 21.0368 46.2707 22.2592 47.8993 22.2592C48.5351 22.2592 49.169 22.0672 49.689 21.6986C49.9399 21.5201 50.1637 21.3031 50.3451 21.0532C50.5265 20.8033 50.7368 20.4704 50.7387 20.1713C50.7387 20.1154 50.73 20.0575 50.7021 20.0092Z" fill="#171717" stroke="#171717" stroke-width="0.0241204" stroke-miterlimit="10"/>
<path d="M31.5447 25.3804C29.9498 25.3804 28.657 26.5632 28.657 28.023C28.657 29.4828 29.9498 30.6656 31.5447 30.6656C33.1395 30.6656 34.4324 29.4828 34.4324 28.023C34.4324 26.5632 33.1395 25.3804 31.5447 25.3804ZM31.9045 29.559C30.9928 29.559 30.2528 28.7534 30.2528 27.7606C30.2528 26.7678 30.9918 25.9622 31.9045 25.9622C32.8173 25.9622 33.5563 26.7678 33.5563 27.7606C33.5563 28.7534 32.8173 29.559 31.9045 29.559Z" fill="#171717" stroke="#171717" stroke-width="0.0241204" stroke-miterlimit="10"/>
<path d="M23.7288 26.0413C23.7413 26.0992 23.7548 26.1571 23.7674 26.215C23.9266 26.9357 24.0867 27.6554 24.2459 28.3762C24.3386 28.7949 24.4312 29.2146 24.5238 29.6333C24.6077 30.0135 24.5682 30.5846 24.9435 30.8181C25.1374 30.9387 25.4124 30.9291 25.5793 30.7737C26.2286 30.1707 25.2368 29.0014 25.4674 28.2855C25.5446 28.0452 25.7289 27.8552 25.918 27.6882C26.382 27.2811 26.9194 26.9579 27.4964 26.7379C27.6469 26.681 27.8322 26.6356 27.9547 26.7389C28.0155 26.79 28.0473 26.8682 28.0637 26.9453C28.1515 27.3515 27.9788 27.8725 27.8833 28.2691C27.7656 28.7534 27.6324 29.2348 27.5601 29.7288C27.5292 29.9382 27.5099 30.1562 27.5707 30.3589C27.6315 30.5615 27.7916 30.7477 28 30.7814C28.2152 30.8171 28.4979 30.7014 28.6329 30.5325C28.7632 30.3704 28.822 30.163 28.877 29.9623C29.0285 29.4095 29.1501 28.8586 29.2678 28.298C29.373 27.7963 29.4791 27.2946 29.5843 26.7929C29.6788 26.3433 29.535 25.8773 29.2089 25.5753C28.9822 25.365 28.6957 25.2608 28.4081 25.2724C28.2818 25.2772 28.1554 25.3052 28.0338 25.3563C27.7048 25.4943 27.3768 25.6313 27.0478 25.7692C26.7052 25.913 26.3724 26.077 26.0386 26.2401C25.7356 26.3877 25.4963 26.6144 25.1403 26.6289C25.0979 26.6308 25.0516 26.6289 25.0178 26.6019C24.985 26.5758 24.9724 26.5314 24.9618 26.4909C24.8576 26.076 24.8576 25.283 24.2459 25.3081C24.2112 25.309 24.1755 25.3148 24.1408 25.3235C23.8417 25.3978 23.6564 25.72 23.7278 26.0423L23.7288 26.0413Z" fill="#171717" stroke="#171717" stroke-width="0.0241204" stroke-miterlimit="10"/>
<path d="M24.0269 26.8487H22.7755C22.3944 26.8487 22.0857 27.1709 22.0857 27.5684V27.6601C22.0857 27.854 22.1667 28.0778 22.3182 28.1994C22.435 28.293 22.7205 28.2756 22.7669 28.4194C22.9087 28.868 21.7297 29.1208 21.4808 29.1208C20.3953 29.1208 19.5164 28.1029 19.5164 26.8467C19.5164 24.8486 21.392 24.0179 23.0717 24.8148C23.1943 24.8737 23.3332 24.9374 23.4615 24.892C23.6034 24.8418 23.6709 24.6662 23.6419 24.5177C23.613 24.3691 23.5107 24.2466 23.4007 24.1443C22.818 23.6021 21.8715 23.3618 21.0929 23.3618C19.2549 23.3618 17.7653 25.0223 17.7653 27.0706C17.7653 29.1189 19.2549 30.7793 21.0929 30.7793C21.8194 30.7793 22.5257 30.5092 23.091 30.0354C23.3795 29.7933 23.6284 29.5019 23.8301 29.1777C23.9709 28.951 23.9613 28.6114 24.1311 28.4078C24.3646 28.129 24.7167 28.1521 24.7167 27.6601V27.5684C24.7167 27.1709 24.408 26.8487 24.0269 26.8487Z" fill="#171717" stroke="#171717" stroke-width="0.0241204" stroke-miterlimit="10"/>
<path d="M0.0637578 11.0696C0.073406 11.0464 1.02664 8.74243 3.91144 8.25037C4.41797 8.1645 4.86082 8.09504 5.25253 8.03425C7.13199 7.74191 7.99067 7.60877 10.1885 6.45485C12.2214 5.38777 14.3392 2.49622 14.3604 2.46631L14.3806 2.47885C14.3584 2.52227 12.1654 6.86393 9.74181 7.9754C7.68772 8.91706 6.71229 8.99424 5.23613 9.11099C4.70066 9.15344 4.09475 9.20168 3.35185 9.30009C1.45309 9.55191 0.0965612 11.0667 0.0830538 11.0821L0.0367432 11.1342L0.0627928 11.0696H0.0637578Z" fill="#171717"/>
<path d="M14.3709 2.47395C14.3709 2.47395 12.1866 6.84262 9.73787 7.9647C6.92544 9.25466 6.09763 8.92373 3.3508 9.28746C1.42503 9.54218 0.0742911 11.0733 0.0742911 11.0733C0.0742911 11.0733 1.00051 8.75778 3.91329 8.26187C6.8251 7.76595 7.53134 7.8634 10.1942 6.46538C12.2531 5.38479 14.3709 2.47395 14.3709 2.47395ZM14.3506 2.45947C14.3294 2.48842 12.2126 5.37804 10.1827 6.44416C7.98673 7.59711 7.12901 7.73025 5.25052 8.02259C4.85977 8.08338 4.41596 8.15188 3.90943 8.23871C1.01788 8.73173 0.0617482 11.0415 0.0521001 11.0656L0 11.1949L0.0926221 11.0907C0.106129 11.0753 1.45976 9.5634 3.3537 9.31255C4.0966 9.21414 4.70251 9.1659 5.23798 9.12441C6.71607 9.00767 7.6915 8.93048 9.74752 7.98786C12.175 6.87446 14.3699 2.5299 14.3921 2.48552L14.3506 2.46044V2.45947Z" fill="#171717"/>
<path d="M0.0637578 13.1296C0.073406 13.1065 1.02664 10.8025 3.91144 10.3104C4.41797 10.2246 4.86082 10.1551 5.25253 10.0943C7.13199 9.80197 7.99067 9.66883 10.1885 8.51491C12.2214 7.44783 14.3392 4.55628 14.3604 4.52637L14.3806 4.53891C14.3584 4.58233 12.1654 8.92399 9.74181 10.0355C7.68772 10.9771 6.71229 11.0543 5.23613 11.171C4.70066 11.2135 4.09475 11.2617 3.35185 11.3601C1.45309 11.612 0.0965612 13.1267 0.0830538 13.1422L0.0367432 13.1943L0.0627928 13.1296H0.0637578Z" fill="#171717"/>
<path d="M14.3709 4.534C14.3709 4.534 12.1866 8.90268 9.73787 10.0248C6.92544 11.3147 6.09763 10.9838 3.3508 11.3475C1.42503 11.6022 0.0742911 13.1334 0.0742911 13.1334C0.0742911 13.1334 1.00051 10.8178 3.91329 10.3219C6.8251 9.82601 7.53134 9.92346 10.1942 8.52544C12.2531 7.44485 14.3709 4.534 14.3709 4.534ZM14.3506 4.51953C14.3294 4.54848 12.2126 7.4381 10.1827 8.50422C7.98673 9.65717 7.12901 9.79031 5.25052 10.0827C4.85977 10.1434 4.41596 10.2119 3.90943 10.2988C1.01788 10.7918 0.0617482 13.1016 0.0521001 13.1257L0 13.255L0.0926221 13.1508C0.106129 13.1353 1.45976 11.6235 3.3537 11.3726C4.0966 11.2742 4.70251 11.226 5.23798 11.1845C6.71607 11.0677 7.6915 10.9905 9.74752 10.0479C12.175 8.93452 14.3699 4.58996 14.3921 4.54558L14.3506 4.5205V4.51953Z" fill="#171717"/>
<path d="M0.0637578 15.1794C0.073406 15.1563 1.02664 12.8523 3.91144 12.3602C4.41797 12.2744 4.86082 12.2049 5.25253 12.1441C7.13199 11.8518 7.99067 11.7186 10.1885 10.5647C12.2214 9.49763 14.3392 6.60608 14.3604 6.57617L14.3806 6.58871C14.3584 6.63213 12.1654 10.9738 9.74181 12.0853C7.68772 13.0269 6.71229 13.1041 5.23613 13.2208C4.70066 13.2633 4.09475 13.3115 3.35185 13.41C1.45309 13.6618 0.0965612 15.1765 0.0830538 15.192L0.0367432 15.2441L0.0627928 15.1794H0.0637578Z" fill="#171717"/>
<path d="M14.3709 6.58381C14.3709 6.58381 12.1866 10.9525 9.73787 12.0746C6.92544 13.3645 6.09763 13.0336 3.3508 13.3973C1.42503 13.652 0.0742911 15.1832 0.0742911 15.1832C0.0742911 15.1832 1.00051 12.8676 3.91329 12.3717C6.8251 11.8758 7.53134 11.9733 10.1942 10.5752C12.2531 9.49465 14.3709 6.58381 14.3709 6.58381ZM14.3506 6.56934C14.3294 6.59828 12.2126 9.4879 10.1827 10.554C7.98673 11.707 7.12901 11.8401 5.25052 12.1325C4.85977 12.1932 4.41596 12.2617 3.90943 12.3486C1.01788 12.8416 0.0617482 15.1514 0.0521001 15.1755L0 15.3048L0.0926221 15.2006C0.106129 15.1851 1.45976 13.6733 3.3537 13.4224C4.0966 13.324 4.70251 13.2758 5.23798 13.2343C6.71607 13.1175 7.6915 13.0403 9.74752 12.0977C12.175 10.9843 14.3699 6.63977 14.3921 6.59539L14.3506 6.5703V6.56934Z" fill="#171717"/>
<path d="M0.0637578 17.3342C0.073406 17.3111 1.02664 15.0071 3.91144 14.515C4.41797 14.4292 4.86178 14.3597 5.25253 14.2989C7.13199 14.0066 7.99067 13.8734 10.1885 12.7195C12.2214 11.6524 14.3392 8.76087 14.3604 8.73096L14.3806 8.7435C14.3584 8.78692 12.1654 13.1286 9.74181 14.24C7.68772 15.1817 6.71229 15.2589 5.23613 15.3756C4.70066 15.4181 4.09475 15.4654 3.35185 15.5647C1.45309 15.8166 0.0965612 17.3313 0.0830538 17.3468L0.0367432 17.3989L0.0627928 17.3342H0.0637578Z" fill="#171717"/>
<path d="M14.3709 8.73859C14.3709 8.73859 12.1866 13.1073 9.73787 14.2294C6.92544 15.5193 6.09763 15.1884 3.3508 15.5521C1.42503 15.8068 0.0742911 17.338 0.0742911 17.338C0.0742911 17.338 1.00051 15.0224 3.91329 14.5265C6.8251 14.0306 7.53134 14.128 10.1942 12.73C12.2531 11.6494 14.3709 8.73859 14.3709 8.73859ZM14.3506 8.72412C14.3294 8.75307 12.2126 11.6427 10.1827 12.7088C7.98673 13.8618 7.12901 13.9949 5.25052 14.2872C4.85977 14.348 4.41596 14.4165 3.90943 14.5034C1.01788 14.9964 0.0617482 17.3061 0.0521001 17.3303L0 17.4596L0.0926221 17.3554C0.106129 17.3399 1.45976 15.8281 3.3537 15.5772C4.0966 15.4788 4.70251 15.4305 5.23798 15.3891C6.71607 15.2723 7.6915 15.1951 9.74752 14.2525C12.175 13.1391 14.3699 8.79455 14.3921 8.75017L14.3506 8.72509V8.72412Z" fill="#171717"/>
<path d="M0.0637578 19.4558C0.073406 19.4326 1.02664 17.1287 3.91144 16.6366C4.41797 16.5507 4.86082 16.4813 5.25253 16.4205C7.13295 16.1281 7.99067 15.995 10.1885 14.8411C12.2214 13.774 14.3392 10.8824 14.3604 10.8525L14.3806 10.8651C14.3584 10.9085 12.1654 15.2502 9.74181 16.3616C7.68772 17.3033 6.71229 17.3805 5.23613 17.4972C4.70066 17.5397 4.09475 17.5869 3.35185 17.6863C1.45309 17.9381 0.0965612 19.4529 0.0830538 19.4683L0.0367432 19.5204L0.0627928 19.4558H0.0637578Z" fill="#171717"/>
<path d="M14.3709 10.8602C14.3709 10.8602 12.1866 15.2289 9.73787 16.3509C6.92544 17.6409 6.09763 17.31 3.3508 17.6737C1.42503 17.9284 0.0742911 19.4596 0.0742911 19.4596C0.0742911 19.4596 1.00051 17.144 3.91329 16.6481C6.8251 16.1522 7.53134 16.2496 10.1942 14.8516C12.2531 13.771 14.3709 10.8602 14.3709 10.8602ZM14.3506 10.8457C14.3294 10.8746 12.2126 13.7643 10.1827 14.8304C7.98673 15.9833 7.12901 16.1165 5.25052 16.4088C4.85977 16.4696 4.41596 16.5381 3.90943 16.6249C1.01788 17.118 0.0617482 19.4277 0.0521001 19.4518L0 19.5811L0.0926221 19.4769C0.106129 19.4615 1.45976 17.9496 3.3537 17.6988C4.0966 17.6004 4.70251 17.5521 5.23798 17.5106C6.71607 17.3939 7.6915 17.3167 9.74752 16.3741C12.175 15.2607 14.3699 10.9161 14.3921 10.8718L14.3506 10.8467V10.8457Z" fill="#171717"/>
<path d="M14.6894 2.38135H14.262V9.13505H14.6894V2.38135Z" fill="#171717"/>
<path d="M14.6777 2.39277V9.12235H14.2744V2.39277H14.6777ZM14.7018 2.36865H14.2502V9.14647H14.7018V2.36865Z" fill="#171717"/>
<path d="M15.5684 3.54296C15.0049 3.54296 14.5621 3.33649 14.3546 2.97758C14.1549 2.63121 14.1829 2.18064 14.4357 1.70885C14.6875 1.23899 15.1304 0.803855 15.6851 0.484501C16.211 0.180585 16.7831 0.0136719 17.2964 0.0136719C17.8598 0.0136719 18.3027 0.220142 18.5101 0.579053C18.7098 0.925422 18.6818 1.37599 18.4291 1.84778C18.1772 2.31765 17.7344 2.75278 17.1796 3.07213C16.6538 3.37605 16.0817 3.54296 15.5684 3.54296Z" fill="#171717"/>
<path d="M17.2964 0.0250854C17.8376 0.0250854 18.2853 0.213224 18.4995 0.584678C18.9086 1.29382 18.3152 2.40239 17.1738 3.06136C16.6307 3.37492 16.0605 3.53026 15.5684 3.53026C15.0271 3.53026 14.5795 3.34212 14.3653 2.97066C13.9562 2.26153 14.5496 1.15295 15.6909 0.493985C16.2341 0.18042 16.8043 0.0250854 17.2964 0.0250854ZM17.2973 0.000965021C16.7821 0.000965021 16.2071 0.168843 15.6803 0.472759C15.1246 0.794042 14.6788 1.23014 14.427 1.70193C14.1723 2.17759 14.1434 2.63201 14.346 2.98224C14.5553 3.34501 15.0021 3.55341 15.5694 3.55341C16.0846 3.55341 16.6596 3.38553 17.1864 3.08162C18.3374 2.41686 18.9366 1.29092 18.5207 0.57117C18.3114 0.2084 17.8647 0 17.2973 0V0.000965021Z" fill="#171717"/>
<path d="M5.48128 21.8428C5.47356 21.8332 4.69495 20.8693 3.39824 20.686C3.31238 20.6745 3.22458 20.6677 3.13774 20.6677C2.29353 20.6677 1.63746 21.2331 1.6307 21.2389L1.5979 21.2678L1.61141 21.2263C1.6172 21.209 2.19898 19.4829 3.58252 19.4829C3.66839 19.4829 3.75619 19.4897 3.84495 19.5032C5.4176 19.7376 5.50251 21.8149 5.50347 21.8361V21.8728L5.48224 21.8438L5.48128 21.8428Z" fill="#171717"/>
<path d="M3.58125 19.4943C3.66519 19.4943 3.75203 19.5011 3.84175 19.5136C5.42308 19.749 5.48966 21.835 5.48966 21.835C5.48966 21.835 4.71588 20.8595 3.3989 20.6733C3.31014 20.6608 3.22234 20.655 3.13647 20.655C2.27875 20.655 1.62172 21.2291 1.62172 21.2291C1.62172 21.2291 2.18999 19.4943 3.58125 19.4943ZM3.58125 19.4702C2.18903 19.4702 1.60531 21.2049 1.59952 21.2223L1.57251 21.3053L1.63908 21.2474C1.64584 21.2416 2.29901 20.6791 3.1384 20.6791C3.22524 20.6791 3.31303 20.6849 3.39794 20.6974C4.69079 20.8798 5.46554 21.8398 5.47325 21.8494L5.5186 21.9064L5.51667 21.833C5.51667 21.8118 5.4308 19.7249 3.84754 19.4895C3.75878 19.476 3.67002 19.4692 3.58318 19.4692L3.58125 19.4702Z" fill="#171717"/>
<path d="M9.03942 21.8351C9.03942 21.8139 9.12529 19.7366 10.6979 19.5022C10.7867 19.4887 10.8745 19.4819 10.9604 19.4819C12.3439 19.4819 12.9257 21.208 12.9315 21.2254L12.945 21.2668L12.9122 21.2379C12.9054 21.2321 12.2484 20.6667 11.4051 20.6667C11.3173 20.6667 11.2295 20.6725 11.1446 20.6851C9.84793 20.8684 9.06933 21.8322 9.06161 21.8419L9.03845 21.8708V21.8342L9.03942 21.8351Z" fill="#171717"/>
<path d="M10.9604 19.4943C12.3507 19.4943 12.92 21.2291 12.92 21.2291C12.92 21.2291 12.2629 20.655 11.4052 20.655C11.3194 20.655 11.2316 20.6608 11.1428 20.6733C9.82582 20.8595 9.05204 21.835 9.05204 21.835C9.05204 21.835 9.11958 19.749 10.6999 19.5136C10.7897 19.5001 10.8765 19.4943 10.9604 19.4943ZM10.9604 19.4702C10.8746 19.4702 10.7848 19.477 10.6961 19.4905C9.11379 19.7259 9.02792 21.8137 9.02695 21.834L9.02502 21.9073L9.07037 21.8504C9.07809 21.8408 9.8538 20.8798 11.1457 20.6984C11.2306 20.6868 11.3174 20.6801 11.4052 20.6801C12.2446 20.6801 12.8978 21.2426 12.9045 21.2484L12.9711 21.3063L12.9441 21.2223C12.9383 21.205 12.3536 19.4702 10.9624 19.4702H10.9604Z" fill="#171717"/>
<path d="M7.3878 27.699C6.37861 27.699 6.01584 27.3546 5.88944 27.0661C5.84603 26.9667 5.792 26.8403 5.72929 26.6956C5.34722 25.8051 4.63615 24.1466 4.1962 23.5966L4.18848 23.587L4.34671 23.4712L4.35346 23.4837C4.36311 23.5021 5.29801 25.3555 7.40999 25.3835C9.52197 25.3555 10.4569 23.503 10.4665 23.4837L10.4733 23.4712L10.6315 23.587L10.6238 23.5966C10.1848 24.1466 9.47276 25.8051 9.0907 26.6956C9.02799 26.8403 8.97396 26.9667 8.93054 27.0661C8.80415 27.3555 8.44138 27.699 7.43218 27.699H7.3878Z" fill="#171717"/>
<path d="M10.4779 23.4893L10.6139 23.5887C10.1036 24.2283 9.23522 26.3413 8.91973 27.061C8.64958 27.6785 7.7002 27.6872 7.43198 27.6872C7.42426 27.6872 7.41655 27.6872 7.40979 27.6872C7.40304 27.6872 7.39532 27.6872 7.3876 27.6872C7.12035 27.6872 6.17001 27.6785 5.89986 27.061C5.58533 26.3413 4.71699 24.2293 4.20564 23.5887L4.34168 23.4893C4.34168 23.4893 5.26501 25.3678 7.40883 25.3958C9.55361 25.3678 10.476 23.4893 10.476 23.4893M10.4683 23.4526L10.4557 23.4787C10.4461 23.497 9.51405 25.3437 7.40979 25.3717C5.3065 25.3437 4.37352 23.498 4.36387 23.4787L4.35133 23.4526L4.32817 23.47L4.19214 23.5694L4.17188 23.5839L4.18731 23.6031C4.62534 24.1521 5.33641 25.8097 5.71847 26.6992C5.78022 26.844 5.83522 26.9704 5.87863 27.0697C6.00599 27.3621 6.37165 27.7104 7.3876 27.7104H7.40014H7.41076H7.42137H7.43391C8.44986 27.7104 8.81553 27.3621 8.94288 27.0697C8.9863 26.9704 9.04033 26.844 9.10304 26.6992C9.48511 25.8087 10.1962 24.1521 10.6342 23.6031L10.6496 23.5839L10.6294 23.5694L10.4933 23.47L10.4702 23.4526H10.4683Z" fill="#171717"/>
<path d="M9.39153 31.9895C8.44891 31.9895 7.75617 31.4357 7.42235 31.099C7.08852 31.4357 6.39675 31.9895 5.45316 31.9895C5.01899 31.9895 4.58 31.8708 4.14873 31.6354C3.58721 31.3296 3.23312 30.8973 3.09805 30.3513C2.99771 29.947 3.02472 29.4916 3.17909 28.9967C3.03726 29.0217 2.89351 29.0353 2.74975 29.0353C2.05991 29.0353 1.43374 28.7439 1.07483 28.2547C0.850029 27.9489 0.631981 27.4298 0.864501 26.6917C1.03431 26.1514 1.44725 25.6449 2.02517 25.2648L2.09078 25.2213L2.04158 25.2821C1.70389 25.6951 1.40287 26.4949 1.509 27.1635C1.56496 27.5147 1.72512 27.7771 1.98369 27.9431C2.18051 28.0695 2.41882 28.1341 2.69089 28.1341C3.04691 28.1341 3.46275 28.0183 3.83131 27.8167C3.9027 27.7781 3.98375 27.7569 4.06479 27.7569C4.19601 27.7569 4.3224 27.8099 4.41116 27.9016C4.56167 28.0569 4.58097 28.2885 4.4594 28.465C4.2838 28.7207 3.86315 29.5206 4.01848 30.1419C4.09181 30.4352 4.2867 30.6639 4.61377 30.8424C4.89357 30.9948 5.17529 31.072 5.45123 31.072C6.39964 31.072 6.99493 30.1631 7.02002 30.1245L7.0287 30.1139C7.03835 30.1004 7.04896 30.0879 7.05957 30.0753C7.07115 30.0618 7.07984 30.0522 7.08852 30.0435C7.0972 30.0348 7.10685 30.0271 7.1165 30.0194C7.13483 30.0049 7.14834 29.9943 7.16281 29.9846L7.17342 29.9769C7.17825 29.974 7.18307 29.9721 7.18886 29.9692L7.19851 29.9644C7.21395 29.9567 7.22842 29.9489 7.24482 29.9431C7.25929 29.9374 7.2728 29.9335 7.28727 29.9287C7.30174 29.9248 7.31622 29.921 7.33165 29.9181C7.34709 29.9152 7.36253 29.9132 7.37796 29.9123C7.3934 29.9113 7.40787 29.9094 7.42331 29.9094C7.43875 29.9094 7.45322 29.9103 7.46769 29.9123C7.48313 29.9132 7.49857 29.9152 7.514 29.9181C7.52848 29.921 7.54295 29.9248 7.55742 29.9287C7.57189 29.9325 7.58636 29.9374 7.60084 29.9431C7.61627 29.9489 7.63171 29.9567 7.64715 29.9644L7.6568 29.9692C7.66162 29.9711 7.66741 29.974 7.67223 29.9769L7.68285 29.9846C7.69732 29.9933 7.71082 30.0039 7.72337 30.0145C7.73784 30.0261 7.74749 30.0338 7.75617 30.0425C7.76582 30.0512 7.77354 30.0609 7.78222 30.0715C7.79573 30.0879 7.80731 30.1004 7.81599 30.1139L7.81406 30.1313L7.82371 30.1245C7.88739 30.222 8.47206 31.0739 9.38671 31.0739C9.66361 31.0739 9.94726 30.9958 10.23 30.8424C10.558 30.6639 10.7529 30.4342 10.8262 30.14C11.0105 29.3951 10.3911 28.4747 10.3853 28.465C10.2628 28.2885 10.2821 28.056 10.4335 27.9006C10.5223 27.809 10.6487 27.7569 10.7789 27.7569C10.8619 27.7569 10.943 27.7781 11.0143 27.8177C11.0201 27.8206 11.5942 28.1312 12.1866 28.1312C12.5503 28.1312 12.8398 28.0125 13.0462 27.7791C13.4438 27.3295 13.5209 26.7342 13.2643 26.1032C13.2575 26.0877 13.2537 26.0771 13.2527 26.0723C13.1688 25.7713 12.6642 25.0959 12.6584 25.0892L12.6159 25.0332L12.6748 25.0718C12.6806 25.0757 13.2691 25.4683 13.5103 25.669C14.1278 26.1823 14.5485 27.5253 13.8017 28.4612C13.4727 28.8741 13.0144 29.0748 12.4018 29.0748C12.122 29.0748 11.8508 29.0314 11.6656 28.9976C11.82 29.4926 11.847 29.948 11.7466 30.3522C11.6116 30.8993 11.2575 31.3305 10.696 31.6364C10.2647 31.8708 9.8257 31.9905 9.39153 31.9905V31.9895Z" fill="#171717"/>
<path d="M12.6691 25.0823C12.6691 25.0823 13.2605 25.4759 13.5036 25.6785C14.1047 26.1773 14.5543 27.5001 13.7931 28.4533C13.4129 28.93 12.8977 29.0621 12.4028 29.0621C12.1384 29.0621 11.8789 29.0245 11.6493 28.9811C11.7785 29.3892 11.8538 29.8745 11.7361 30.3482C11.601 30.8914 11.2498 31.3208 10.6912 31.6247C10.231 31.8755 9.79392 31.9768 9.39255 31.9768C8.55992 31.9768 7.87394 31.5398 7.42337 31.0815C6.9728 31.5398 6.28682 31.9768 5.45418 31.9768C5.05185 31.9768 4.61576 31.8746 4.15554 31.6247C3.59691 31.3208 3.24476 30.8914 3.11065 30.3482C2.99294 29.8745 3.0682 29.3892 3.19748 28.9811C3.04793 29.0091 2.89839 29.0226 2.75077 29.0226C1.51677 29.0226 0.4439 28.0684 0.877102 26.6945C1.06428 26.1011 1.51291 25.6158 2.03295 25.2743C1.49941 25.9275 1.13181 27.4104 1.97795 27.9526C2.19118 28.0896 2.43817 28.1456 2.69192 28.1456C3.09135 28.1456 3.50912 28.0066 3.83812 27.8272C3.90951 27.7886 3.98863 27.7693 4.06581 27.7693C4.19027 27.7693 4.31377 27.8175 4.4035 27.9102C4.54919 28.0607 4.56848 28.2874 4.44981 28.4582C4.27421 28.7148 3.85066 29.5185 4.00696 30.1447C4.08125 30.4418 4.27807 30.6724 4.60804 30.8528C4.91195 31.0188 5.19465 31.0844 5.45129 31.0844C6.40356 31.0844 6.99885 30.1804 7.02972 30.1321C7.03262 30.1283 7.03551 30.1254 7.03841 30.1215C7.04709 30.108 7.0577 30.0955 7.06928 30.0829C7.07893 30.0723 7.08761 30.0617 7.09726 30.052C7.10691 30.0424 7.11849 30.0337 7.1291 30.025C7.14164 30.0144 7.15515 30.0048 7.16866 29.9961C7.17252 29.9942 7.17541 29.9903 7.17927 29.9884C7.18699 29.9835 7.19567 29.9806 7.20339 29.9768C7.21786 29.9691 7.23233 29.9623 7.24777 29.9556C7.26128 29.9498 7.27575 29.9459 7.28926 29.9421C7.30373 29.9382 7.31724 29.9343 7.33171 29.9314C7.34715 29.9285 7.36162 29.9266 7.37706 29.9257C7.39153 29.9247 7.406 29.9237 7.42047 29.9237C7.43495 29.9237 7.44942 29.9247 7.46389 29.9257C7.47933 29.9266 7.4938 29.9285 7.50924 29.9314C7.52371 29.9343 7.53818 29.9382 7.55169 29.9421C7.56616 29.9459 7.57967 29.9507 7.59317 29.9556C7.60861 29.9614 7.62308 29.9691 7.63756 29.9768C7.64528 29.9806 7.65396 29.9835 7.66168 29.9884C7.66554 29.9903 7.66843 29.9942 7.67229 29.9961C7.6858 30.0048 7.69931 30.0154 7.71185 30.025C7.72246 30.0337 7.73404 30.0424 7.74369 30.052C7.75333 30.0617 7.76298 30.0723 7.77167 30.0829C7.78228 30.0955 7.79289 30.108 7.80254 30.1215C7.80543 30.1254 7.80833 30.1283 7.81122 30.1321C7.88937 30.2508 8.46826 31.0873 9.38387 31.0873C9.64147 31.0873 9.9261 31.0207 10.2329 30.8538C10.5638 30.6734 10.7607 30.4409 10.835 30.1437C11.0202 29.395 10.3979 28.4688 10.3921 28.4591C10.2734 28.2874 10.2927 28.0607 10.4394 27.9102C10.5291 27.8185 10.6516 27.7703 10.7761 27.7703C10.8552 27.7703 10.9343 27.7896 11.0057 27.8291C11.0134 27.8339 11.5933 28.1446 12.1838 28.1446C12.4983 28.1446 12.8157 28.0568 13.0531 27.7886C13.7284 27.0245 13.2779 26.1291 13.2615 26.0712C13.1766 25.7644 12.6652 25.0832 12.6652 25.0832M12.5649 24.9839L12.6498 25.0968C12.6546 25.1035 13.1592 25.7779 13.2422 26.076C13.2431 26.0809 13.248 26.0924 13.2547 26.1088C13.5094 26.736 13.4332 27.3264 13.0396 27.7722C12.835 28.0028 12.5494 28.1205 12.1886 28.1205C11.6039 28.1205 11.0269 27.8108 11.0212 27.8079C10.9478 27.7674 10.8639 27.7461 10.78 27.7461C10.6458 27.7461 10.5175 27.8002 10.4259 27.8938C10.2705 28.0529 10.2503 28.2913 10.3767 28.4736C10.3825 28.4823 10.998 29.4037 10.8166 30.1389C10.7443 30.4303 10.5513 30.657 10.2262 30.8335C9.94539 30.986 9.66367 31.0641 9.38869 31.0641C8.47984 31.0641 7.89902 30.217 7.83631 30.1205C7.83438 30.1177 7.83245 30.1148 7.82956 30.1128C7.81798 30.0964 7.8064 30.0829 7.79579 30.0704L7.79193 30.0656C7.78324 30.0559 7.77553 30.0463 7.76588 30.0376C7.75719 30.0289 7.74658 30.0212 7.73693 30.0125L7.73211 30.0086C7.7186 29.998 7.70509 29.9874 7.69062 29.9778C7.68483 29.9739 7.6829 29.971 7.67904 29.9691C7.67325 29.9662 7.66747 29.9633 7.66264 29.9614C7.65975 29.9604 7.65685 29.9585 7.65396 29.9575C7.63852 29.9498 7.62308 29.9421 7.60668 29.9353C7.59221 29.9295 7.57774 29.9257 7.5623 29.9208C7.54783 29.917 7.53239 29.9121 7.51695 29.9093C7.50152 29.9064 7.48512 29.9044 7.46968 29.9035C7.45424 29.9025 7.4388 29.9006 7.42337 29.9006C7.40793 29.9006 7.39249 29.9015 7.37706 29.9035C7.36162 29.9044 7.34522 29.9064 7.32978 29.9093C7.31434 29.9121 7.29987 29.916 7.28443 29.9208C7.26996 29.9247 7.25453 29.9295 7.24005 29.9353C7.22365 29.9421 7.20821 29.9498 7.19278 29.9575C7.18988 29.9594 7.18699 29.9604 7.18409 29.9614C7.17831 29.9642 7.17252 29.9662 7.16769 29.9691C7.1648 29.971 7.1619 29.9729 7.15901 29.9749C7.14164 29.9864 7.12813 29.997 7.11463 30.0077L7.1098 30.0115C7.10015 30.0192 7.08954 30.027 7.08086 30.0356C7.07217 30.0443 7.06349 30.054 7.05481 30.0636L7.05095 30.0684C7.03937 30.082 7.02876 30.0945 7.01911 30.109C7.01429 30.1138 7.01236 30.1167 7.01043 30.1196C6.98534 30.1582 6.39391 31.0612 5.45225 31.0612C5.17824 31.0612 4.89845 30.9841 4.62058 30.8326C4.2964 30.656 4.10344 30.4303 4.03108 30.1398C3.87671 29.5224 4.29544 28.7264 4.47007 28.4726C4.5955 28.2922 4.57524 28.0539 4.42087 27.8947C4.32921 27.8002 4.19992 27.7461 4.06581 27.7461C3.98187 27.7461 3.8989 27.7674 3.82654 27.8069C3.45895 28.0076 3.04504 28.1224 2.69192 28.1224C2.42177 28.1224 2.18635 28.0587 1.99146 27.9333C1.73579 27.7693 1.57756 27.5098 1.5216 27.1615C1.41547 26.4967 1.71553 25.7017 2.05128 25.2897L2.15066 25.1682L2.01944 25.254C1.43862 25.6351 1.02472 26.1445 0.853946 26.6868C0.620461 27.4297 0.840439 27.9526 1.06621 28.2604C1.42705 28.7524 2.05707 29.0457 2.75077 29.0457C2.88778 29.0457 3.02671 29.0342 3.16275 29.011C3.0132 29.5002 2.98812 29.9517 3.08749 30.3531C3.22353 30.903 3.57955 31.3381 4.14396 31.645C4.57716 31.8804 5.01809 32 5.45418 32C6.39391 32 7.08472 31.453 7.42337 31.1143C7.76202 31.453 8.45283 32 9.39255 32C9.82865 32 10.2696 31.8804 10.7028 31.645C11.2682 31.3372 11.6232 30.903 11.7592 30.3531C11.8586 29.9517 11.8335 29.5002 11.684 29.011C11.8692 29.0448 12.1317 29.0853 12.4028 29.0853C13.0193 29.0853 13.4805 28.8827 13.8124 28.4669C14.1568 28.0346 14.289 27.475 14.1829 26.8894C14.0941 26.3964 13.8394 25.9236 13.5191 25.6583C13.2779 25.4576 12.6884 25.0649 12.6826 25.0611L12.5658 24.9829L12.5649 24.9839Z" fill="#171717"/>
</svg>
