<svg width="22" height="22" viewBox="0 0 22 22" fill="none" xmlns="http://www.w3.org/2000/svg">
<g clip-path="url(#clip0_4515_1163)">
<path d="M22.1049 20.9527L16.1902 15.0378C17.487 13.4829 18.2696 11.485 18.2696 9.30663C18.2696 4.36442 14.249 0.34375 9.30675 0.34375C4.36454 0.34375 0.343872 4.36442 0.343872 9.30663C0.343872 14.2488 4.36454 18.2695 9.30675 18.2695C11.4851 18.2695 13.483 17.4869 15.0379 16.1901L20.9528 22.105C21.1119 22.2641 21.3205 22.3438 21.5289 22.3438C21.7372 22.3438 21.9458 22.2641 22.1049 22.105C22.4233 21.7866 22.4233 21.2709 22.1049 20.9527ZM1.97349 9.30663C1.97349 5.26315 5.26286 1.97336 9.30675 1.97336C13.3506 1.97336 16.64 5.26315 16.64 9.30663C16.64 13.3501 13.3506 16.6399 9.30675 16.6399C5.26286 16.6399 1.97349 13.3501 1.97349 9.30663Z" fill="#FFF68E"/>
</g>
<defs>
<clipPath id="clip0_4515_1163">
<rect width="22" height="22" fill="white"/>
</clipPath>
</defs>
</svg>
