<svg width="18" height="18" viewBox="0 0 18 18" fill="none" xmlns="http://www.w3.org/2000/svg">
<g clip-path="url(#clip0_2838_5849)">
<path d="M10.8747 9.5625C10.5179 9.5662 10.1647 9.49077 9.84046 9.34163C9.51626 9.1925 9.22913 8.97337 8.99974 8.7C8.76866 8.97138 8.4812 9.18913 8.15738 9.33809C7.83357 9.48704 7.48117 9.56362 7.12474 9.5625C6.7679 9.5662 6.41467 9.49077 6.09046 9.34163C5.76626 9.1925 5.47913 8.97337 5.24974 8.7C5.1806 8.78296 5.10539 8.86067 5.02474 8.9325C4.77225 9.16224 4.47392 9.33583 4.14943 9.44184C3.82494 9.54785 3.48166 9.58386 3.14224 9.5475C2.52791 9.4718 1.96314 9.17199 1.55623 8.70557C1.14932 8.23914 0.928898 7.63892 0.93724 7.02V6.4875C0.93663 6.10528 0.997404 5.72545 1.11724 5.3625L2.29474 1.8375C2.38141 1.57571 2.54833 1.34787 2.77181 1.18632C2.99529 1.02477 3.26398 0.937709 3.53974 0.9375H14.4597C14.7355 0.937709 15.0042 1.02477 15.2277 1.18632C15.4512 1.34787 15.6181 1.57571 15.7047 1.8375L16.8822 5.3625C17.0021 5.72545 17.0629 6.10528 17.0622 6.4875V7.02C17.071 7.63664 16.8527 8.23497 16.4489 8.70105C16.045 9.16713 15.4839 9.4684 14.8722 9.5475C14.5328 9.58483 14.1892 9.54928 13.8646 9.44322C13.54 9.33717 13.2417 9.16305 12.9897 8.9325C12.9072 8.8575 12.8247 8.7675 12.7497 8.685C12.5197 8.95873 12.2329 9.17904 11.909 9.33059C11.5852 9.48213 11.2323 9.56127 10.8747 9.5625ZM3.53974 2.0625C3.50037 2.0631 3.46211 2.0756 3.42998 2.09835C3.39785 2.12111 3.37336 2.15306 3.35974 2.19L2.18974 5.715C2.10849 5.95685 2.06547 6.20989 2.06224 6.465V6.9975C2.05124 7.33608 2.16515 7.66688 2.38229 7.92689C2.59943 8.18691 2.90462 8.35797 3.23974 8.4075C3.4206 8.42623 3.60337 8.40718 3.77648 8.35155C3.94959 8.29593 4.10925 8.20494 4.24534 8.08436C4.38143 7.96378 4.49098 7.81624 4.56705 7.65109C4.64312 7.48595 4.68405 7.3068 4.68724 7.125C4.68724 6.97582 4.7465 6.83274 4.85199 6.72725C4.95748 6.62176 5.10056 6.5625 5.24974 6.5625C5.39892 6.5625 5.542 6.62176 5.64749 6.72725C5.75298 6.83274 5.81224 6.97582 5.81224 7.125C5.80365 7.29963 5.83172 7.47413 5.89465 7.63725C5.95757 7.80038 6.05395 7.94853 6.17758 8.07216C6.30121 8.19579 6.44936 8.29217 6.61249 8.35509C6.77561 8.41802 6.95011 8.44609 7.12474 8.4375C7.47223 8.43553 7.80493 8.29662 8.05064 8.0509C8.29636 7.80519 8.43527 7.47249 8.43724 7.125C8.43724 6.97582 8.4965 6.83274 8.60199 6.72725C8.70748 6.62176 8.85056 6.5625 8.99974 6.5625C9.14892 6.5625 9.292 6.62176 9.39749 6.72725C9.50298 6.83274 9.56224 6.97582 9.56224 7.125C9.55365 7.29963 9.58172 7.47413 9.64465 7.63725C9.70757 7.80038 9.80395 7.94853 9.92758 8.07216C10.0512 8.19579 10.1994 8.29217 10.3625 8.35509C10.5256 8.41802 10.7001 8.44609 10.8747 8.4375C11.2222 8.43553 11.5549 8.29662 11.8006 8.0509C12.0464 7.80519 12.1853 7.47249 12.1872 7.125C12.1872 6.97582 12.2465 6.83274 12.352 6.72725C12.4575 6.62176 12.6006 6.5625 12.7497 6.5625C12.8989 6.5625 13.042 6.62176 13.1475 6.72725C13.253 6.83274 13.3122 6.97582 13.3122 7.125C13.3123 7.3087 13.351 7.49034 13.4257 7.65817C13.5004 7.826 13.6094 7.97627 13.7459 8.09928C13.8823 8.22229 14.0431 8.31528 14.2177 8.37225C14.3924 8.42922 14.577 8.44889 14.7597 8.43C15.0949 8.38047 15.4001 8.20941 15.6172 7.94939C15.8343 7.68938 15.9482 7.35858 15.9372 7.02V6.4875C15.934 6.23239 15.891 5.97935 15.8097 5.7375L14.6397 2.2125C14.6261 2.17556 14.6016 2.14361 14.5695 2.12085C14.5374 2.0981 14.4991 2.0856 14.4597 2.085L3.53974 2.0625Z" fill="#171717"/>
<path d="M15 17.0625H3C2.65251 17.0605 2.31981 16.9216 2.0741 16.6759C1.82838 16.4302 1.68947 16.0975 1.6875 15.75V8.61001C1.6875 8.46082 1.74676 8.31775 1.85225 8.21226C1.95774 8.10677 2.10082 8.04751 2.25 8.04751C2.39918 8.04751 2.54226 8.10677 2.64775 8.21226C2.75324 8.31775 2.8125 8.46082 2.8125 8.61001V15.75C2.8125 15.7997 2.83225 15.8474 2.86742 15.8826C2.90258 15.9178 2.95027 15.9375 3 15.9375H15C15.0497 15.9375 15.0974 15.9178 15.1326 15.8826C15.1677 15.8474 15.1875 15.7997 15.1875 15.75V8.60251C15.1875 8.45332 15.2468 8.31025 15.3523 8.20476C15.4577 8.09927 15.6008 8.04001 15.75 8.04001C15.8992 8.04001 16.0423 8.09927 16.1477 8.20476C16.2532 8.31025 16.3125 8.45332 16.3125 8.60251V15.75C16.3105 16.0975 16.1716 16.4302 15.9259 16.6759C15.6802 16.9216 15.3475 17.0605 15 17.0625Z" fill="#171717"/>
<path d="M11.625 17.0625H6.375C6.22642 17.0606 6.08447 17.0007 5.9794 16.8956C5.87433 16.7905 5.81444 16.6486 5.8125 16.5V12.75C5.81447 12.4025 5.95338 12.0698 6.1991 11.8241C6.44481 11.5784 6.77751 11.4395 7.125 11.4375H10.875C11.2225 11.4395 11.5552 11.5784 11.8009 11.8241C12.0466 12.0698 12.1855 12.4025 12.1875 12.75V16.5C12.1856 16.6486 12.1257 16.7905 12.0206 16.8956C11.9155 17.0007 11.7736 17.0606 11.625 17.0625ZM6.9375 15.9375H11.0625V12.75C11.0625 12.7003 11.0427 12.6526 11.0076 12.6174C10.9724 12.5823 10.9247 12.5625 10.875 12.5625H7.125C7.07527 12.5625 7.02758 12.5823 6.99242 12.6174C6.95725 12.6526 6.9375 12.7003 6.9375 12.75V15.9375Z" fill="#171717"/>
</g>
<defs>
<clipPath id="clip0_2838_5849">
<rect width="18" height="18" fill="white"/>
</clipPath>
</defs>
</svg>
