<svg width="22" height="22" viewBox="0 0 22 22" fill="none" xmlns="http://www.w3.org/2000/svg">
<g clip-path="url(#clip0_2518_1500)">
<path d="M7.5622 0C6.41535 0 5.50238 0.929066 5.50238 2.0598V7.56115C5.50238 8.49861 6.87738 8.49861 6.87738 7.56115V2.0598C6.87738 1.66704 7.18823 1.37498 7.5622 1.37498H19.9412C20.334 1.37498 20.626 1.69389 20.626 2.0598V19.9402C20.626 20.3114 20.334 20.625 19.9412 20.625H7.5622C7.16943 20.625 6.87738 20.3114 6.87738 19.9402V14.4388C6.87738 13.5286 5.50238 13.5152 5.50238 14.4388V19.9402C5.50238 21.0843 6.43147 22 7.5622 22H19.9412C21.072 22 22.001 21.0843 22.001 19.9402V2.0598C22.001 0.929066 21.0854 0 19.9412 0H7.5622ZM10.5163 8.05394L12.7748 10.3125H0.685852C-0.229919 10.3125 -0.229919 11.6875 0.685852 11.6875H12.7789L10.5163 13.946C9.8664 14.5959 10.8413 15.5708 11.4912 14.9209L14.9273 11.4847C15.1947 11.2173 15.1947 10.7826 14.9273 10.5152L11.4912 7.07909C10.8021 6.45141 9.90366 7.38687 10.5163 8.05394Z" fill="#FFF68E"/>
</g>
<defs>
<clipPath id="clip0_2518_1500">
<rect width="22" height="22" fill="white"/>
</clipPath>
</defs>
</svg>
