<svg width="16" height="16" viewBox="0 0 16 16" fill="none" xmlns="http://www.w3.org/2000/svg">
<g clip-path="url(#clip0_2616_595)">
<path d="M12.644 10.1755C13.1413 9.34342 13.4712 8.29101 13.5352 7.24969C13.5758 6.58132 13.4269 5.87972 13.1044 5.21997C12.5985 4.18357 11.7295 3.60137 10.89 3.03886C10.2635 2.61913 9.67144 2.22278 9.25295 1.65658L9.17786 1.55565C8.93046 1.22331 8.65105 0.84666 8.60673 0.530325C8.56242 0.210296 8.27194 -0.0174164 7.95437 0.00104681C7.63188 0.0232026 7.38201 0.290303 7.38201 0.614024V11.5812C6.86627 11.2685 6.23114 11.0765 5.53569 11.0765C3.83954 11.0765 2.4585 12.1806 2.4585 13.5382C2.4585 14.8959 3.83954 16 5.53569 16C7.23184 16 8.61289 14.8959 8.61289 13.5382V6.36469C9.53728 6.71795 11.05 7.61772 11.4661 9.71883C11.3885 9.83331 11.3147 9.95639 11.2285 10.0549C11.0033 10.3097 11.0279 10.6986 11.2839 10.9226C11.5375 11.1491 11.9264 11.122 12.1517 10.8672C12.3166 10.6802 12.4631 10.4611 12.6034 10.2321C12.6182 10.2149 12.6317 10.1964 12.644 10.1755Z" fill="#EE077D"/>
</g>
<defs>
<clipPath id="clip0_2616_595">
<rect width="16" height="16" fill="white"/>
</clipPath>
</defs>
</svg>
