<svg width="16" height="16" viewBox="0 0 16 16" fill="none" xmlns="http://www.w3.org/2000/svg">
<path d="M6.46395 8.83172C6.41595 8.83172 5.35995 8.83172 4.87995 8.83172C4.62395 8.83172 4.54395 8.73572 4.54395 8.49572C4.54395 7.85572 4.54395 7.19972 4.54395 6.55972C4.54395 6.30372 4.63995 6.22372 4.87995 6.22372H6.46395C6.46395 6.17572 6.46395 5.24772 6.46395 4.81572C6.46395 4.17572 6.57595 3.56772 6.89595 3.00772C7.23195 2.43172 7.71195 2.04772 8.31995 1.82372C8.71995 1.67972 9.11995 1.61572 9.55195 1.61572H11.1199C11.3439 1.61572 11.4399 1.71172 11.4399 1.93572V3.75972C11.4399 3.98372 11.3439 4.07972 11.1199 4.07972C10.6879 4.07972 10.2559 4.07972 9.82395 4.09572C9.39195 4.09572 9.16795 4.30372 9.16795 4.75172C9.15195 5.23172 9.16795 5.69572 9.16795 6.19172H11.0239C11.2799 6.19172 11.3759 6.28772 11.3759 6.54372V8.47972C11.3759 8.73572 11.2959 8.81572 11.0239 8.81572C10.4479 8.81572 9.21595 8.81572 9.16795 8.81572V14.0317C9.16795 14.3037 9.08795 14.3997 8.79995 14.3997C8.12795 14.3997 7.47195 14.3997 6.79995 14.3997C6.55995 14.3997 6.46395 14.3037 6.46395 14.0637C6.46395 12.3837 6.46395 8.87972 6.46395 8.83172Z" fill="#EE077D"/>
</svg>
