<svg width="16" height="16" viewBox="0 0 16 16" fill="none" xmlns="http://www.w3.org/2000/svg">
<path d="M10.3674 8.66406L9.02736 10.0086C8.48395 10.5539 7.52783 10.5657 6.97267 10.0086L5.63258 8.66406L0.81958 13.4927C0.998736 13.5755 1.19627 13.625 1.40627 13.625H14.5938C14.8038 13.625 15.0012 13.5756 15.1803 13.4927L10.3674 8.66406Z" fill="#EE077D"/>
<path d="M14.5942 2.375H1.40669C1.19669 2.375 0.999162 2.42444 0.820068 2.50728L5.9631 7.66738C5.96344 7.66772 5.96385 7.66778 5.96419 7.66813C5.96454 7.66847 5.9646 7.66894 5.9646 7.66894L7.63688 9.34675C7.81451 9.52438 8.18644 9.52438 8.36407 9.34675L10.036 7.66922C10.036 7.66922 10.0364 7.66847 10.0368 7.66813C10.0368 7.66813 10.0375 7.66772 10.0378 7.66738L15.1808 2.50725C15.0017 2.42438 14.8042 2.375 14.5942 2.375Z" fill="#EE077D"/>
<path d="M0.149562 3.16309C0.056875 3.35052 0 3.55859 0 3.78146V12.219C0 12.4418 0.0568125 12.6499 0.149531 12.8373L4.97087 8.00037L0.149562 3.16309Z" fill="#EE077D"/>
<path d="M15.8503 3.1626L11.0291 7.99994L15.8503 12.837C15.943 12.6495 15.9999 12.4415 15.9999 12.2185V3.78104C15.9999 3.5581 15.943 3.35004 15.8503 3.1626Z" fill="#EE077D"/>
</svg>
