<svg width="16" height="16" viewBox="0 0 16 16" fill="none" xmlns="http://www.w3.org/2000/svg">
<path d="M14.1947 1.94289C12.226 2.75825 3.78476 6.25473 1.45244 7.20769C-0.111717 7.81809 0.803964 8.39041 0.803964 8.39041C0.803964 8.39041 2.13916 8.84817 3.2838 9.19153C4.42828 9.53489 5.03868 9.15345 5.03868 9.15345L10.4179 5.52913C12.3254 4.23201 11.8676 5.30017 11.4097 5.75809C10.4179 6.75009 8.7774 8.31409 7.40396 9.57313C6.79356 10.1072 7.09868 10.565 7.36588 10.7939C8.35772 11.6333 11.0665 13.3501 11.219 13.4645C12.0249 14.0351 13.6102 14.8563 13.8513 13.1211L14.8051 7.13153C15.1104 5.10961 15.4155 3.24017 15.4536 2.70609C15.5681 1.40881 14.1947 1.94289 14.1947 1.94289Z" fill="#EE077D"/>
</svg>
